<?xml version="1.0" encoding="UTF-8"?>
<svg version="1.1" xmlns="http://www.w3.org/2000/svg" width="900" height="900">
<path d="M0 0 C297 0 594 0 900 0 C900 297 900 594 900 900 C603 900 306 900 0 900 C0 603 0 306 0 0 Z " fill="#FEFEFE" transform="translate(0,0)"/>
<path d="M0 0 C29.7 0 59.4 0 90 0 C90 7.26 90 14.52 90 22 C97.59 22 105.18 22 113 22 C113 29.59 113 37.18 113 45 C120.26 45 127.52 45 135 45 C135 59.85 135 74.7 135 90 C142.59 90 150.18 90 158 90 C158 97.26 158 104.52 158 112 C172.85 112 187.7 112 203 112 C203 104.74 203 97.48 203 90 C269.66 90 336.32 90 405 90 C405 82.41 405 74.82 405 67 C412.59 67 420.18 67 428 67 C428 59.74 428 52.48 428 45 C435.26 45 442.52 45 450 45 C450 37.41 450 29.82 450 22 C464.85 22 479.7 22 495 22 C495 14.74 495 7.48 495 0 C524.7 0 554.4 0 585 0 C585 7.26 585 14.52 585 22 C592.59 22 600.18 22 608 22 C608 29.59 608 37.18 608 45 C615.26 45 622.52 45 630 45 C630 52.26 630 59.52 630 67 C637.59 67 645.18 67 653 67 C653 89.44 653 111.88 653 135 C645.41 135 637.82 135 630 135 C630 142.26 630 149.52 630 157 C622.74 157 615.48 157 608 157 C608 171.85 608 186.7 608 202 C600.41 202 592.82 202 585 202 C585 209.59 585 217.18 585 225 C577.74 225 570.48 225 563 225 C563 239.85 563 254.7 563 270 C555.41 270 547.82 270 540 270 C540 299.7 540 329.4 540 360 C532.74 360 525.48 360 518 360 C518 374.85 518 389.7 518 405 C510.41 405 502.82 405 495 405 C495 419.85 495 434.7 495 450 C487.74 450 480.48 450 473 450 C473 442.41 473 434.82 473 427 C465.41 427 457.82 427 450 427 C450 419.74 450 412.48 450 405 C442.74 405 435.48 405 428 405 C428 397.41 428 389.82 428 382 C420.41 382 412.82 382 405 382 C405 345.04 405 308.08 405 270 C412.59 270 420.18 270 428 270 C428 262.41 428 254.82 428 247 C420.41 247 412.82 247 405 247 C405 224.89 405 202.78 405 180 C397.74 180 390.48 180 383 180 C383 165.15 383 150.3 383 135 C360.56 135 338.12 135 315 135 C315 142.26 315 149.52 315 157 C292.89 157 270.78 157 248 157 C248 164.59 248 172.18 248 180 C233.15 180 218.3 180 203 180 C203 187.26 203 194.52 203 202 C217.85 202 232.7 202 248 202 C248 209.59 248 217.18 248 225 C262.85 225 277.7 225 293 225 C293 239.85 293 254.7 293 270 C300.26 270 307.52 270 315 270 C315 299.7 315 329.4 315 360 C307.74 360 300.48 360 293 360 C293 367.26 293 374.52 293 382 C285.41 382 277.82 382 270 382 C270 389.59 270 397.18 270 405 C262.74 405 255.48 405 248 405 C248 412.26 248 419.52 248 427 C233.15 427 218.3 427 203 427 C203 434.59 203 442.18 203 450 C210.26 450 217.52 450 225 450 C225 457.26 225 464.52 225 472 C238.89930288 471.89203279 252.79855612 471.77997654 266.6977663 471.66066074 C273.15127652 471.60542627 279.60479127 471.55200536 286.05834961 471.50268555 C292.28290512 471.45504984 298.50740468 471.4027072 304.73189354 471.34705925 C307.11019693 471.32663212 309.48851568 471.30791964 311.86684608 471.29092598 C315.19034006 471.26689002 318.5137279 471.23683415 321.8371582 471.20532227 C322.8269014 471.1995668 323.81664459 471.19381134 324.83638 471.18788147 C326.19303772 471.17319824 326.19303772 471.17319824 327.57710266 471.15821838 C328.36339208 471.15176583 329.14968149 471.14531328 329.95979786 471.1386652 C332.20250465 471.07203718 332.20250465 471.07203718 335 470 C335 470.66 335 471.32 335 472 C335.66 472 336.32 472 337 472 C337.33 464.74 337.66 457.48 338 450 C352.85 450 367.7 450 383 450 C383.33 456.93 383.66 463.86 384 471 C416.67 471.495 416.67 471.495 450 472 C450 479.59 450 487.18 450 495 C435.15 495 420.3 495 405 495 C405 502.26 405 509.52 405 517 C412.59 517 420.18 517 428 517 C428 524.59 428 532.18 428 540 C435.26 540 442.52 540 450 540 C450 554.85 450 569.7 450 585 C442.74 585 435.48 585 428 585 C428 592.26 428 599.52 428 607 C413.15 607 398.3 607 383 607 C383 599.74 383 592.48 383 585 C375.41 585 367.82 585 360 585 C360 636.81 360 688.62 360 742 C330.3 742 300.6 742 270 742 C270 727.15 270 712.3 270 697 C255.15 697 240.3 697 225 697 C225 674.89 225 652.78 225 630 C239.85 630 254.7 630 270 630 C270 622.41 270 614.82 270 607 C255.15 607 240.3 607 225 607 C225 599.74 225 592.48 225 585 C217.74 585 210.48 585 203 585 C203 592.26 203 599.52 203 607 C195.41 607 187.82 607 180 607 C180 614.59 180 622.18 180 630 C165.15 630 150.3 630 135 630 C135 622.41 135 614.82 135 607 C127.74 607 120.48 607 113 607 C113 584.89 113 562.78 113 540 C120.26 540 127.52 540 135 540 C135 532.41 135 524.82 135 517 C149.85 517 164.7 517 180 517 C180 509.74 180 502.48 180 495 C172.74 495 165.48 495 158 495 C158 487.41 158 479.82 158 472 C150.41 472 142.82 472 135 472 C135 457.15 135 442.3 135 427 C120.15 427 105.3 427 90 427 C90 419.74 90 412.48 90 405 C82.74 405 75.48 405 68 405 C68 397.41 68 389.82 68 382 C60.41 382 52.82 382 45 382 C45 359.89 45 337.78 45 315 C37.74 315 30.48 315 23 315 C23 307.41 23 299.82 23 292 C30.26 292 37.52 292 45 292 C45 284.74 45 277.48 45 270 C30.15 270 15.3 270 0 270 C0 262.41 0 254.82 0 247 C-7.26 247 -14.52 247 -22 247 C-22 239.74 -22 232.48 -22 225 C-29.59 225 -37.18 225 -45 225 C-45 210.15 -45 195.3 -45 180 C-37.41 180 -29.82 180 -22 180 C-22 165.15 -22 150.3 -22 135 C-29.59 135 -37.18 135 -45 135 C-45 105.3 -45 75.6 -45 45 C-37.41 45 -29.82 45 -22 45 C-22 37.41 -22 29.82 -22 22 C-14.74 22 -7.48 22 0 22 C0 14.74 0 7.48 0 0 Z " fill="#775951" transform="translate(157,90)"/>
<path d="M0 0 C37.29 0 74.58 0 113 0 C113 7.59 113 15.18 113 23 C127.85 23 142.7 23 158 23 C158 37.85 158 52.7 158 68 C165.26 68 172.52 68 180 68 C180 97.7 180 127.4 180 158 C172.74 158 165.48 158 158 158 C158 165.26 158 172.52 158 180 C150.41 180 142.82 180 135 180 C135 187.59 135 195.18 135 203 C127.74 203 120.48 203 113 203 C113 210.26 113 217.52 113 225 C98.15 225 83.3 225 68 225 C68 232.59 68 240.18 68 248 C75.26 248 82.52 248 90 248 C90 255.26 90 262.52 90 270 C103.89930288 269.89203279 117.79855612 269.77997654 131.6977663 269.66066074 C138.15127652 269.60542627 144.60479127 269.55200536 151.05834961 269.50268555 C157.28290512 269.45504984 163.50740468 269.4027072 169.73189354 269.34705925 C172.11019693 269.32663212 174.48851568 269.30791964 176.86684608 269.29092598 C180.19034006 269.26689002 183.5137279 269.23683415 186.8371582 269.20532227 C187.8269014 269.1995668 188.81664459 269.19381134 189.83638 269.18788147 C191.19303772 269.17319824 191.19303772 269.17319824 192.57710266 269.15821838 C193.36339208 269.15176583 194.14968149 269.14531328 194.95979786 269.1386652 C197.20250465 269.07203718 197.20250465 269.07203718 200 268 C200 268.66 200 269.32 200 270 C200.66 270 201.32 270 202 270 C202.33 262.74 202.66 255.48 203 248 C217.85 248 232.7 248 248 248 C248.33 254.93 248.66 261.86 249 269 C281.67 269.495 281.67 269.495 315 270 C315 277.59 315 285.18 315 293 C300.15 293 285.3 293 270 293 C270 300.26 270 307.52 270 315 C277.59 315 285.18 315 293 315 C293 322.59 293 330.18 293 338 C300.26 338 307.52 338 315 338 C315 352.85 315 367.7 315 383 C307.74 383 300.48 383 293 383 C293 390.26 293 397.52 293 405 C278.15 405 263.3 405 248 405 C248 397.74 248 390.48 248 383 C240.41 383 232.82 383 225 383 C225 434.81 225 486.62 225 540 C195.3 540 165.6 540 135 540 C135 525.15 135 510.3 135 495 C120.15 495 105.3 495 90 495 C90 472.89 90 450.78 90 428 C104.85 428 119.7 428 135 428 C135 420.41 135 412.82 135 405 C120.15 405 105.3 405 90 405 C90 397.74 90 390.48 90 383 C82.74 383 75.48 383 68 383 C68 390.26 68 397.52 68 405 C60.41 405 52.82 405 45 405 C45 412.59 45 420.18 45 428 C30.15 428 15.3 428 0 428 C0 420.41 0 412.82 0 405 C-7.26 405 -14.52 405 -22 405 C-22 382.89 -22 360.78 -22 338 C-14.74 338 -7.48 338 0 338 C0 330.41 0 322.82 0 315 C14.85 315 29.7 315 45 315 C45 307.74 45 300.48 45 293 C37.74 293 30.48 293 23 293 C23 285.41 23 277.82 23 270 C15.41 270 7.82 270 0 270 C0 247.89 0 225.78 0 203 C-7.26 203 -14.52 203 -22 203 C-22 195.41 -22 187.82 -22 180 C-29.59 180 -37.18 180 -45 180 C-45 172.74 -45 165.48 -45 158 C-52.26 158 -59.52 158 -67 158 C-67 120.71 -67 83.42 -67 45 C-52.15 45 -37.3 45 -22 45 C-22 37.74 -22 30.48 -22 23 C-14.74 23 -7.48 23 0 23 C0 15.41 0 7.82 0 0 Z " fill="#1C061E" transform="translate(292,292)"/>
<path d="M0 0 C29.7 0 59.4 0 90 0 C90 7.26 90 14.52 90 22 C97.59 22 105.18 22 113 22 C113 29.59 113 37.18 113 45 C120.26 45 127.52 45 135 45 C135 52.26 135 59.52 135 67 C142.59 67 150.18 67 158 67 C158 89.44 158 111.88 158 135 C150.41 135 142.82 135 135 135 C135 142.26 135 149.52 135 157 C127.74 157 120.48 157 113 157 C113 171.85 113 186.7 113 202 C105.41 202 97.82 202 90 202 C90 209.59 90 217.18 90 225 C82.74 225 75.48 225 68 225 C68 239.85 68 254.7 68 270 C60.41 270 52.82 270 45 270 C45 299.7 45 329.4 45 360 C37.74 360 30.48 360 23 360 C23 374.85 23 389.7 23 405 C15.41 405 7.82 405 0 405 C0 419.85 0 434.7 0 450 C-7.26 450 -14.52 450 -22 450 C-22 442.41 -22 434.82 -22 427 C-29.59 427 -37.18 427 -45 427 C-45 419.74 -45 412.48 -45 405 C-52.26 405 -59.52 405 -67 405 C-67 397.41 -67 389.82 -67 382 C-74.59 382 -82.18 382 -90 382 C-90 345.04 -90 308.08 -90 270 C-82.41 270 -74.82 270 -67 270 C-67 232.71 -67 195.42 -67 157 C-74.59 157 -82.18 157 -90 157 C-90 149.74 -90 142.48 -90 135 C-75.15 135 -60.3 135 -45 135 C-45 127.41 -45 119.82 -45 112 C-52.26 112 -59.52 112 -67 112 C-67 89.89 -67 67.78 -67 45 C-59.74 45 -52.48 45 -45 45 C-45 37.41 -45 29.82 -45 22 C-30.15 22 -15.3 22 0 22 C0 14.74 0 7.48 0 0 Z " fill="#775950" transform="translate(652,90)"/>
<path d="M0 0 C22.44 0 44.88 0 68 0 C68 14.85 68 29.7 68 45 C75.26 45 82.52 45 90 45 C90 67.11 90 89.22 90 112 C97.59 112 105.18 112 113 112 C113 119.59 113 127.18 113 135 C105.41 135 97.82 135 90 135 C90 171.96 90 208.92 90 247 C97.59 247 105.18 247 113 247 C113 254.59 113 262.18 113 270 C120.26 270 127.52 270 135 270 C135 277.26 135 284.52 135 292 C142.59 292 150.18 292 158 292 C158 306.85 158 321.7 158 337 C135.82874151 337.04010881 135.82874151 337.04010881 126.41210938 337.04882812 C119.97484518 337.05481683 113.53759515 337.06191786 107.1003418 337.07543945 C101.91325157 337.08626745 96.72617651 337.09227665 91.53907585 337.09487724 C89.5554372 337.09673165 87.57179942 337.10035256 85.58816719 337.10573006 C82.81990864 337.11293932 80.05171362 337.11399099 77.28344727 337.11352539 C76.45482681 337.11712067 75.62620636 337.12071594 74.7724762 337.12442017 C69.11405216 337.11405216 69.11405216 337.11405216 68 336 C68 329.07 68 322.14 68 315 C53.15 315 38.3 315 23 315 C23 322.59 23 330.18 23 338 C21.68 337.34 20.36 336.68 19 336 C18.34 336.33 17.68 336.66 17 337 C15.56817177 337.09189837 14.13213052 337.12193458 12.69735718 337.12025452 C11.34276146 337.12231651 11.34276146 337.12231651 9.96080017 337.12442017 C8.47079247 337.11902725 8.47079247 337.11902725 6.95068359 337.11352539 C5.90675949 337.11367142 4.86283539 337.11381744 3.78727722 337.1139679 C0.32430977 337.11326922 -3.1386044 337.10547891 -6.6015625 337.09765625 C-8.99767019 337.09579191 -11.39377827 337.09436808 -13.78988647 337.09336853 C-20.10608975 337.08954461 -26.42227014 337.07971538 -32.73846436 337.06866455 C-39.17980642 337.05844774 -45.62115217 337.05387033 -52.0625 337.04882812 C-64.70834502 337.03809301 -77.35416703 337.02049721 -90 337 C-90 329.74 -90 322.48 -90 315 C-97.26 315 -104.52 315 -112 315 C-112 307.41 -112 299.82 -112 292 C-97.15 292 -82.3 292 -67 292 C-67 284.74 -67 277.48 -67 270 C-59.74 270 -52.48 270 -45 270 C-45 262.41 -45 254.82 -45 247 C-37.41 247 -29.82 247 -22 247 C-22 239.74 -22 232.48 -22 225 C-14.74 225 -7.48 225 0 225 C0 195.3 0 165.6 0 135 C-7.26 135 -14.52 135 -22 135 C-22 120.15 -22 105.3 -22 90 C-36.85 90 -51.7 90 -67 90 C-67 82.41 -67 74.82 -67 67 C-81.85 67 -96.7 67 -112 67 C-112 59.74 -112 52.48 -112 45 C-97.15 45 -82.3 45 -67 45 C-67 37.41 -67 29.82 -67 22 C-44.89 22 -22.78 22 0 22 C0 14.74 0 7.48 0 0 Z " fill="#D8BB9C" transform="translate(472,225)"/>
<path d="M0 0 C5.35684878 -0.02470696 10.71366444 -0.04286331 16.07055664 -0.05493164 C17.89315366 -0.0599624 19.71574665 -0.06678769 21.53833008 -0.07543945 C24.15707394 -0.08755997 26.77576447 -0.09324086 29.39453125 -0.09765625 C30.61811089 -0.10539818 30.61811089 -0.10539818 31.8664093 -0.11329651 C35.17013929 -0.1136246 37.84323138 -0.05225621 41 1 C41.495 1.99 41.495 1.99 42 3 C47.94 3.33 53.88 3.66 60 4 C60.33 3.34 60.66 2.68 61 2 C90.7 2 120.4 2 151 2 C151 2.66 151 3.32 151 4 C122.29 4 93.58 4 64 4 C64 18.85 64 33.7 64 49 C93.7 49 123.4 49 154 49 C154 33.82 154 18.64 154 3 C175 4 175 4 176 5 C176.0927833 6.38160115 176.11747043 7.76788038 176.11352539 9.15258789 C176.11344986 10.03342545 176.11337433 10.914263 176.11329651 11.8217926 C176.10813522 12.77907761 176.10297394 13.73636261 176.09765625 14.72265625 C176.09553383 16.18547279 176.09553383 16.18547279 176.09336853 17.67784119 C176.08775133 20.80609143 176.07519593 23.93427123 176.0625 27.0625 C176.05748722 29.17773334 176.05292393 31.29296781 176.04882812 33.40820312 C176.03862531 38.60551801 176.01905331 43.80267975 176 49 C183.59 49 191.18 49 199 49 C199 56.59 199 64.18 199 72 C191.41 72 183.82 72 176 72 C176 123.81 176 175.62 176 229 C146.3 229 116.6 229 86 229 C86 214.15 86 199.3 86 184 C71.15 184 56.3 184 41 184 C41 161.89 41 139.78 41 117 C55.85 117 70.7 117 86 117 C86 109.41 86 101.82 86 94 C71.15 94 56.3 94 41 94 C41 86.74 41 79.48 41 72 C33.74 72 26.48 72 19 72 C19 79.26 19 86.52 19 94 C11.41 94 3.82 94 -4 94 C-4 101.59 -4 109.18 -4 117 C-18.85 117 -33.7 117 -49 117 C-49 109.41 -49 101.82 -49 94 C-56.26 94 -63.52 94 -71 94 C-71 71.89 -71 49.78 -71 27 C-63.74 27 -56.48 27 -49 27 C-49 19.41 -49 11.82 -49 4 C-34.15 4 -19.3 4 -4 4 C-4 3.34 -4 2.68 -4 2 C-2.68 2 -1.36 2 0 2 C0 1.34 0 0.68 0 0 Z " fill="#1E020B" transform="translate(341,603)"/>
<path d="M0 0 C14.85 0 29.7 0 45 0 C45 7.59 45 15.18 45 23 C59.85 23 74.7 23 90 23 C90 37.85 90 52.7 90 68 C97.26 68 104.52 68 112 68 C112 97.7 112 127.4 112 158 C104.74 158 97.48 158 90 158 C90 165.26 90 172.52 90 180 C82.41 180 74.82 180 67 180 C67 187.59 67 195.18 67 203 C59.74 203 52.48 203 45 203 C45 195.41 45 187.82 45 180 C22.56 180 0.12 180 -23 180 C-23 172.74 -23 165.48 -23 158 C-30.26 158 -37.52 158 -45 158 C-45 128.3 -45 98.6 -45 68 C-37.74 68 -30.48 68 -23 68 C-23 53.15 -23 38.3 -23 23 C-15.41 23 -7.82 23 0 23 C0 15.41 0 7.82 0 0 Z " fill="#020812" transform="translate(360,292)"/>
<path d="M0 0 C22.44 0 44.88 0 68 0 C68 7.59 68 15.18 68 23 C60.41 23 52.82 23 45 23 C45 37.85 45 52.7 45 68 C37.74 68 30.48 68 23 68 C23 97.7 23 127.4 23 158 C30.26 158 37.52 158 45 158 C45 165.26 45 172.52 45 180 C37.74 180 30.48 180 23 180 C23 187.59 23 195.18 23 203 C30.26 203 37.52 203 45 203 C45 210.26 45 217.52 45 225 C30.15 225 15.3 225 0 225 C0 217.74 0 210.48 0 203 C-7.26 203 -14.52 203 -22 203 C-22 195.41 -22 187.82 -22 180 C-29.59 180 -37.18 180 -45 180 C-45 172.74 -45 165.48 -45 158 C-52.26 158 -59.52 158 -67 158 C-67 120.71 -67 83.42 -67 45 C-52.15 45 -37.3 45 -22 45 C-22 37.74 -22 30.48 -22 23 C-14.74 23 -7.48 23 0 23 C0 15.41 0 7.82 0 0 Z " fill="#CDAE72" transform="translate(292,292)"/>
<path d="M0 0 C7.59 0 15.18 0 23 0 C23 22.11 23 44.22 23 67 C30.26 67 37.52 67 45 67 C45 59.74 45 52.48 45 45 C52.59 45 60.18 45 68 45 C68 59.85 68 74.7 68 90 C60.41 90 52.82 90 45 90 C45 119.7 45 149.4 45 180 C37.74 180 30.48 180 23 180 C23 194.85 23 209.7 23 225 C15.41 225 7.82 225 0 225 C0 217.41 0 209.82 0 202 C-7.26 202 -14.52 202 -22 202 C-22 194.74 -22 187.48 -22 180 C-29.59 180 -37.18 180 -45 180 C-45 150.3 -45 120.6 -45 90 C-37.41 90 -29.82 90 -22 90 C-22 82.41 -22 74.82 -22 67 C-29.59 67 -37.18 67 -45 67 C-45 59.74 -45 52.48 -45 45 C-30.15 45 -15.3 45 0 45 C0 30.15 0 15.3 0 0 Z " fill="#0A090A" transform="translate(652,270)"/>
<path d="M0 0 C22.11 0 44.22 0 67 0 C67 7.59 67 15.18 67 23 C89.44 23 111.88 23 135 23 C135 30.26 135 37.52 135 45 C112.56 45 90.12 45 67 45 C67 52.59 67 60.18 67 68 C59.74 68 52.48 68 45 68 C45 75.26 45 82.52 45 90 C30.15 90 15.3 90 0 90 C0 127.29 0 164.58 0 203 C7.26 203 14.52 203 22 203 C22 210.26 22 217.52 22 225 C29.59 225 37.18 225 45 225 C45 232.59 45 240.18 45 248 C52.26 248 59.52 248 67 248 C67 255.26 67 262.52 67 270 C52.15 270 37.3 270 22 270 C22 262.74 22 255.48 22 248 C14.74 248 7.48 248 0 248 C0 240.41 0 232.82 0 225 C-7.59 225 -15.18 225 -23 225 C-23 202.89 -23 180.78 -23 158 C-30.26 158 -37.52 158 -45 158 C-45 150.41 -45 142.82 -45 135 C-37.74 135 -30.48 135 -23 135 C-23 127.74 -23 120.48 -23 113 C-37.85 113 -52.7 113 -68 113 C-68 105.41 -68 97.82 -68 90 C-53.15 90 -38.3 90 -23 90 C-23 82.74 -23 75.48 -23 68 C-15.41 68 -7.82 68 0 68 C0 45.56 0 23.12 0 0 Z " fill="#2D132B" transform="translate(225,247)"/>
<path d="M0 0 C29.7 0 59.4 0 90 0 C90 14.85 90 29.7 90 45 C75.15 45 60.3 45 45 45 C45 52.59 45 60.18 45 68 C52.26 68 59.52 68 67 68 C67 75.26 67 82.52 67 90 C80.89930288 89.89203279 94.79855612 89.77997654 108.6977663 89.66066074 C115.15127652 89.60542627 121.60479127 89.55200536 128.05834961 89.50268555 C134.28290512 89.45504984 140.50740468 89.4027072 146.73189354 89.34705925 C149.11019693 89.32663212 151.48851568 89.30791964 153.86684608 89.29092598 C157.19034006 89.26689002 160.5137279 89.23683415 163.8371582 89.20532227 C164.8269014 89.1995668 165.81664459 89.19381134 166.83638 89.18788147 C167.74081848 89.17809265 168.64525696 89.16830383 169.57710266 89.15821838 C170.75653678 89.14853956 170.75653678 89.14853956 171.95979786 89.1386652 C174.20250465 89.07203718 174.20250465 89.07203718 177 88 C177 88.66 177 89.32 177 90 C177.66 90 178.32 90 179 90 C179.33 82.74 179.66 75.48 180 68 C194.85 68 209.7 68 225 68 C225.33 74.93 225.66 81.86 226 89 C258.67 89.495 258.67 89.495 292 90 C292 97.59 292 105.18 292 113 C210.49 113 128.98 113 45 113 C45 105.41 45 97.82 45 90 C22.56 90 0.12 90 -23 90 C-23 75.15 -23 60.3 -23 45 C-8.15 45 6.7 45 22 45 C22 37.74 22 30.48 22 23 C14.74 23 7.48 23 0 23 C0 15.41 0 7.82 0 0 Z " fill="#CE987F" transform="translate(315,472)"/>
<path d="M0 0 C7.59 0 15.18 0 23 0 C23 14.85 23 29.7 23 45 C30.26 45 37.52 45 45 45 C45 52.59 45 60.18 45 68 C30.15 68 15.3 68 0 68 C0 75.26 0 82.52 0 90 C7.59 90 15.18 90 23 90 C23 119.7 23 149.4 23 180 C15.41 180 7.82 180 0 180 C0 157.89 0 135.78 0 113 C-7.26 113 -14.52 113 -22 113 C-22 98.15 -22 83.3 -22 68 C-44.44 68 -66.88 68 -90 68 C-90 60.41 -90 52.82 -90 45 C-126.96 45 -163.92 45 -202 45 C-202 37.74 -202 30.48 -202 23 C-135.34 23 -68.68 23 0 23 C0 15.41 0 7.82 0 0 Z " fill="#2D132A" transform="translate(562,157)"/>
<path d="M0 0 C29.7 0 59.4 0 90 0 C90 7.59 90 15.18 90 23 C82.74 23 75.48 23 68 23 C68 45.11 68 67.22 68 90 C60.41 90 52.82 90 45 90 C45 97.59 45 105.18 45 113 C30.15 113 15.3 113 0 113 C0 105.41 0 97.82 0 90 C-7.26 90 -14.52 90 -22 90 C-22 67.89 -22 45.78 -22 23 C-14.74 23 -7.48 23 0 23 C0 15.41 0 7.82 0 0 Z " fill="#DBB89A" transform="translate(292,607)"/>
<path d="M0 0 C22.44 0 44.88 0 68 0 C68 22.44 68 44.88 68 68 C60.41 68 52.82 68 45 68 C45 75.26 45 82.52 45 90 C22.89 90 0.78 90 -22 90 C-22 82.74 -22 75.48 -22 68 C-29.59 68 -37.18 68 -45 68 C-45 53.15 -45 38.3 -45 23 C-30.15 23 -15.3 23 0 23 C0 15.41 0 7.82 0 0 Z " fill="#775951" transform="translate(157,247)"/>
<path d="M0 0 C14.85 0 29.7 0 45 0 C45 37.29 45 74.58 45 113 C52.26 113 59.52 113 67 113 C67 120.26 67 127.52 67 135 C74.59 135 82.18 135 90 135 C90 142.59 90 150.18 90 158 C97.26 158 104.52 158 112 158 C112 165.26 112 172.52 112 180 C97.15 180 82.3 180 67 180 C67 172.74 67 165.48 67 158 C59.74 158 52.48 158 45 158 C45 150.41 45 142.82 45 135 C37.41 135 29.82 135 22 135 C22 127.74 22 120.48 22 113 C14.74 113 7.48 113 0 113 C0 75.71 0 38.42 0 0 Z " fill="#C3DAEE" transform="translate(225,337)"/>
<path d="M0 0 C7.59 0 15.18 0 23 0 C23 14.85 23 29.7 23 45 C30.26 45 37.52 45 45 45 C45 59.85 45 74.7 45 90 C52.59 90 60.18 90 68 90 C68 97.26 68 104.52 68 112 C75.26 112 82.52 112 90 112 C90 134.44 90 156.88 90 180 C82.74 180 75.48 180 68 180 C68 172.41 68 164.82 68 157 C60.41 157 52.82 157 45 157 C45 149.74 45 142.48 45 135 C37.74 135 30.48 135 23 135 C23 127.41 23 119.82 23 112 C15.41 112 7.82 112 0 112 C0 75.04 0 38.08 0 0 Z " fill="#C6806A" transform="translate(562,360)"/>
<path d="M0 0 C14.85 0 29.7 0 45 0 C45 7.26 45 14.52 45 22 C52.59 22 60.18 22 68 22 C68 29.59 68 37.18 68 45 C75.26 45 82.52 45 90 45 C90 59.85 90 74.7 90 90 C75.15 90 60.3 90 45 90 C45 97.26 45 104.52 45 112 C52.59 112 60.18 112 68 112 C68 119.59 68 127.18 68 135 C60.41 135 52.82 135 45 135 C45 149.85 45 164.7 45 180 C37.74 180 30.48 180 23 180 C23 127.86 23 75.72 23 22 C15.41 22 7.82 22 0 22 C0 14.74 0 7.48 0 0 Z " fill="#785951" transform="translate(562,225)"/>
<path d="M0 0 C22.44 0 44.88 0 68 0 C68 7.59 68 15.18 68 23 C75.26 23 82.52 23 90 23 C90 37.85 90 52.7 90 68 C82.74 68 75.48 68 68 68 C68 75.26 68 82.52 68 90 C53.15 90 38.3 90 23 90 C23 75.15 23 60.3 23 45 C15.41 45 7.82 45 0 45 C0 30.15 0 15.3 0 0 Z " fill="#DCB899" transform="translate(517,607)"/>
<path d="M0 0 C29.7 0 59.4 0 90 0 C90 14.85 90 29.7 90 45 C75.15 45 60.3 45 45 45 C45 52.59 45 60.18 45 68 C30.15 68 15.3 68 0 68 C0 75.26 0 82.52 0 90 C-7.59 90 -15.18 90 -23 90 C-23 75.15 -23 60.3 -23 45 C-8.15 45 6.7 45 22 45 C22 37.74 22 30.48 22 23 C14.74 23 7.48 23 0 23 C0 15.41 0 7.82 0 0 Z " fill="#C5816A" transform="translate(315,472)"/>
<path d="M0 0 C7.59 0 15.18 0 23 0 C23 29.7 23 59.4 23 90 C30.26 90 37.52 90 45 90 C45 97.26 45 104.52 45 112 C52.59 112 60.18 112 68 112 C68 119.59 68 127.18 68 135 C75.26 135 82.52 135 90 135 C90 142.26 90 149.52 90 157 C75.15 157 60.3 157 45 157 C45 149.74 45 142.48 45 135 C37.74 135 30.48 135 23 135 C23 127.41 23 119.82 23 112 C15.41 112 7.82 112 0 112 C0 89.89 0 67.78 0 45 C-7.26 45 -14.52 45 -22 45 C-22 37.41 -22 29.82 -22 22 C-14.74 22 -7.48 22 0 22 C0 14.74 0 7.48 0 0 Z " fill="#1A071C" transform="translate(202,360)"/>
<path d="M0 0 C14.85 0 29.7 0 45 0 C45 37.29 45 74.58 45 113 C30.15 113 15.3 113 0 113 C0 75.71 0 38.42 0 0 Z " fill="#C98251" transform="translate(450,697)"/>
<path d="M0 0 C29.7 0 59.4 0 90 0 C90 14.85 90 29.7 90 45 C60.3 45 30.6 45 0 45 C0 30.15 0 15.3 0 0 Z " fill="#D5B774" transform="translate(405,607)"/>
<path d="M0 0 C14.85 0 29.7 0 45 0 C45 7.59 45 15.18 45 23 C37.74 23 30.48 23 23 23 C23 37.85 23 52.7 23 68 C15.41 68 7.82 68 0 68 C0 75.26 0 82.52 0 90 C-7.26 90 -14.52 90 -22 90 C-22 67.89 -22 45.78 -22 23 C-14.74 23 -7.48 23 0 23 C0 15.41 0 7.82 0 0 Z " fill="#775951" transform="translate(697,247)"/>
<path d="M0 0 C7.26 0 14.52 0 22 0 C22 22.11 22 44.22 22 67 C29.59 67 37.18 67 45 67 C45 74.59 45 82.18 45 90 C37.41 90 29.82 90 22 90 C22 104.85 22 119.7 22 135 C14.74 135 7.48 135 0 135 C0 90.45 0 45.9 0 0 Z " fill="#7E6A56" transform="translate(585,270)"/>
<path d="M0 0 C22.44 0 44.88 0 68 0 C68 7.59 68 15.18 68 23 C60.41 23 52.82 23 45 23 C45 37.85 45 52.7 45 68 C37.74 68 30.48 68 23 68 C23 97.7 23 127.4 23 158 C30.26 158 37.52 158 45 158 C45 165.26 45 172.52 45 180 C30.15 180 15.3 180 0 180 C0 172.74 0 165.48 0 158 C6.27 157.67 12.54 157.34 19 157 C20.6001392 153.7997216 20.11125527 150.3313476 20.08178711 146.81835938 C20.07872055 145.97271927 20.07565399 145.12707916 20.07249451 144.2558136 C20.06533101 142.41640789 20.05593665 140.57700984 20.04459953 138.73762512 C20.02726226 135.83008316 20.01692734 132.92259573 20.00868225 130.01501465 C19.98417816 121.74709914 19.94858036 113.47925717 19.90405273 105.21142578 C19.87732876 100.15819281 19.8602476 95.10500238 19.84918404 90.05171204 C19.84295883 88.12191698 19.83293451 86.19213042 19.81910515 84.26237488 C19.79997272 81.56874134 19.79300472 78.87533276 19.78881836 76.18164062 C19.77567596 74.97686821 19.77567596 74.97686821 19.76226807 73.74775696 C19.77210401 68.22789599 19.77210401 68.22789599 22 66 C24.24658203 65.86474609 24.24658203 65.86474609 27.0078125 66.0234375 C27.8961377 66.06903809 28.78446289 66.11463867 29.69970703 66.16162109 C30.83005371 66.23203613 31.96040039 66.30245117 33.125 66.375 C36.71375 66.58125 40.3025 66.7875 44 67 C44 52.48 44 37.96 44 23 C34.1 23.495 34.1 23.495 24 24 C23.67 30.93 23.34 37.86 23 45 C15.41 45 7.82 45 0 45 C0 30.15 0 15.3 0 0 Z " fill="#C3816B" transform="translate(292,292)"/>
<path d="M0 0 C7.59 0 15.18 0 23 0 C23 36.96 23 73.92 23 112 C15.41 112 7.82 112 0 112 C0 75.04 0 38.08 0 0 Z " fill="#030B00" transform="translate(562,360)"/>
<path d="M0 0 C7.59 0 15.18 0 23 0 C23 7.26 23 14.52 23 22 C37.85 22 52.7 22 68 22 C68 29.59 68 37.18 68 45 C53.15 45 38.3 45 23 45 C23 52.26 23 59.52 23 67 C15.41 67 7.82 67 0 67 C0 44.89 0 22.78 0 0 Z " fill="#2D132A" transform="translate(292,180)"/>
<path d="M0 0 C7.59 0 15.18 0 23 0 C23 22.11 23 44.22 23 67 C-25.14285714 68.28571429 -25.14285714 68.28571429 -45 67 C-45 59.74 -45 52.48 -45 45 C-30.15 45 -15.3 45 0 45 C0 30.15 0 15.3 0 0 Z " fill="#2D132A" transform="translate(652,270)"/>
<path d="M0 0 C7.26 0 14.52 0 22 0 C22 37.29 22 74.58 22 113 C14.74 113 7.48 113 0 113 C0 75.71 0 38.42 0 0 Z " fill="#C0B1A8" transform="translate(225,337)"/>
<path d="M0 0 C29.7 0 59.4 0 90 0 C90 7.26 90 14.52 90 22 C67.56 22 45.12 22 22 22 C22 29.59 22 37.18 22 45 C14.74 45 7.48 45 0 45 C0 30.15 0 15.3 0 0 Z " fill="#2D132A" transform="translate(135,225)"/>
<path d="M0 0 C6.93 0 13.86 0 21 0 C22 1 22 1 22.12304783 2.87219334 C22.12166514 4.10970042 22.12166514 4.10970042 22.12025452 5.37220764 C22.12162918 6.31596756 22.12300385 7.25972748 22.12442017 8.23208618 C22.12082489 9.27577362 22.11722961 10.31946106 22.11352539 11.39477539 C22.11367142 12.48732132 22.11381744 13.57986725 22.1139679 14.70552063 C22.11326822 18.33625233 22.10547329 21.96693346 22.09765625 25.59765625 C22.09579226 28.10729443 22.09436827 30.61693298 22.09336853 33.12657166 C22.08993348 39.06934593 22.08204273 45.01210384 22.07201904 50.95486969 C22.05976253 58.38201925 22.05437792 65.80917105 22.04882812 73.23632812 C22.03808811 86.49089655 22.02049008 99.74544306 22 113 C14.74 113 7.48 113 0 113 C0 75.71 0 38.42 0 0 Z " fill="#C5806A" transform="translate(270,337)"/>
<path d="M0 0 C22.44 0 44.88 0 68 0 C68 7.59 68 15.18 68 23 C53.15 23 38.3 23 23 23 C23 30.26 23 37.52 23 45 C15.41 45 7.82 45 0 45 C0 30.15 0 15.3 0 0 Z " fill="#1C071E" transform="translate(292,517)"/>
<path d="M0 0 C7.59 0 15.18 0 23 0 C23 29.7 23 59.4 23 90 C15.41 90 7.82 90 0 90 C0 60.3 0 30.6 0 0 Z " fill="#2D132B" transform="translate(112,135)"/>
<path d="M0 0 C7.26 0 14.52 0 22 0 C22 7.26 22 14.52 22 22 C29.59 22 37.18 22 45 22 C45 44.44 45 66.88 45 90 C37.41 90 29.82 90 22 90 C21.505 56.835 21.505 56.835 21 23 C14.07 22.67 7.14 22.34 0 22 C0 14.74 0 7.48 0 0 Z " fill="#2C132A" transform="translate(765,135)"/>
<path d="M0 0 C14.85 0.33 29.7 0.66 45 1 C45 15.85 45 30.7 45 46 C30.15 46 15.3 46 0 46 C0 30.82 0 15.64 0 0 Z " fill="#C5CED2" transform="translate(450,764)"/>
<path d="M0 0 C14.85 0 29.7 0 45 0 C45 14.85 45 29.7 45 45 C30.15 45 15.3 45 0 45 C0 30.15 0 15.3 0 0 Z " fill="#D0917C" transform="translate(540,652)"/>
<path d="M0 0 C14.85 0 29.7 0 45 0 C45 14.85 45 29.7 45 45 C30.15 45 15.3 45 0 45 C0 30.15 0 15.3 0 0 Z " fill="#B2ABB6" transform="translate(630,382)"/>
<path d="M0 0 C14.85 0 29.7 0 45 0 C45 14.85 45 29.7 45 45 C30.15 45 15.3 45 0 45 C0 30.15 0 15.3 0 0 Z " fill="#B2ABB6" transform="translate(382,382)"/>
<path d="M0 0 C7.59 0 15.18 0 23 0 C23 14.85 23 29.7 23 45 C15.41 45 7.82 45 0 45 C0 52.59 0 60.18 0 68 C-7.26 68 -14.52 68 -22 68 C-22 53.15 -22 38.3 -22 23 C-14.74 23 -7.48 23 0 23 C0 15.41 0 7.82 0 0 Z " fill="#2D132A" transform="translate(742,247)"/>
<path d="M0 0 C29.7 0 59.4 0 90 0 C90 7.26 90 14.52 90 22 C60.3 22 30.6 22 0 22 C0 14.74 0 7.48 0 0 Z " fill="#2D132B" transform="translate(157,90)"/>
<path d="M0 0 C29.7 0 59.4 0 90 0 C90 7.26 90 14.52 90 22 C60.3 22 30.6 22 0 22 C0 14.74 0 7.48 0 0 Z " fill="#2D132B" transform="translate(652,90)"/>
<path d="M0 0 C22.44 0 44.88 0 68 0 C68 7.59 68 15.18 68 23 C59.28155659 23.02255338 50.56313241 23.04091645 41.84466648 23.05181217 C37.79674258 23.05704041 33.74883959 23.06413699 29.70092773 23.07543945 C25.79764029 23.08627043 21.89437301 23.09227728 17.9910717 23.09487724 C16.49866353 23.09673111 15.00625652 23.100351 13.51385689 23.10573006 C11.43051861 23.11294331 9.34726469 23.11399083 7.26391602 23.11352539 C6.07588882 23.115746 4.88786163 23.11796661 3.66383362 23.12025452 C1 23 1 23 0 22 C0 14.74 0 7.48 0 0 Z " fill="#CCAF72" transform="translate(337,472)"/>
<path d="M0 0 C22.11 0 44.22 0 67 0 C67 7.59 67 15.18 67 23 C44.89 23 22.78 23 0 23 C0 15.41 0 7.82 0 0 Z " fill="#0C0714" transform="translate(90,427)"/>
<path d="M0 0 C14.85 0 29.7 0 45 0 C45 14.85 45 29.7 45 45 C37.74 45 30.48 45 23 45 C23 37.41 23 29.82 23 22 C15.41 22 7.82 22 0 22 C0 14.74 0 7.48 0 0 Z " fill="#010B00" transform="translate(607,495)"/>
<path d="M0 0 C22.44 0 44.88 0 68 0 C68 7.26 68 14.52 68 22 C45.56 22 23.12 22 0 22 C0 14.74 0 7.48 0 0 Z " fill="#2D132A" transform="translate(292,270)"/>
<path d="M0 0 C7.26 0 14.52 0 22 0 C22 22.44 22 44.88 22 68 C15.07 68 8.14 68 1 68 C0 67 0 67 -0.12025452 64.33616638 C-0.11803391 63.14813919 -0.11581329 61.960112 -0.11352539 60.73608398 C-0.11367142 60.08244873 -0.11381744 59.42881348 -0.1139679 58.75537109 C-0.11326883 56.58557872 -0.10547678 54.41587121 -0.09765625 52.24609375 C-0.09579205 50.74536689 -0.09436816 49.24463943 -0.09336853 47.74391174 C-0.08954352 43.78681774 -0.0797134 39.82976022 -0.06866455 35.87268066 C-0.05845006 31.83765151 -0.05387083 27.80261647 -0.04882812 23.76757812 C-0.0380911 15.84503344 -0.02049445 7.92252546 0 0 Z " fill="#D5B775" transform="translate(450,697)"/>
<path d="M0 0 C7.26 0 14.52 0 22 0 C22 22.11 22 44.22 22 67 C14.74 67 7.48 67 0 67 C0 44.89 0 22.78 0 0 Z " fill="#130807" transform="translate(270,630)"/>
<path d="M0 0 C22.11 0 44.22 0 67 0 C67 7.26 67 14.52 67 22 C44.89 22 22.78 22 0 22 C0 14.74 0 7.48 0 0 Z " fill="#0C0613" transform="translate(720,360)"/>
<path d="M0 0 C22.11 0 44.22 0 67 0 C67 7.26 67 14.52 67 22 C44.89 22 22.78 22 0 22 C0 14.74 0 7.48 0 0 Z " fill="#2E1329" transform="translate(405,225)"/>
<path d="M0 0 C0.33 0 0.66 0 1 0 C1 14.85 1 29.7 1 45 C-6.26 45 -13.52 45 -21 45 C-21 74.7 -21 104.4 -21 135 C-13.74 135 -6.48 135 1 135 C1 142.26 1 149.52 1 157 C-13.85 157 -28.7 157 -44 157 C-44 149.74 -44 142.48 -44 135 C-37.73 134.67 -31.46 134.34 -25 134 C-23.3998608 130.7997216 -23.88874473 127.3313476 -23.91821289 123.81835938 C-23.92127945 122.97271927 -23.92434601 122.12707916 -23.92750549 121.2558136 C-23.93466899 119.41640789 -23.94406335 117.57700984 -23.95540047 115.73762512 C-23.97273774 112.83008316 -23.98307266 109.92259573 -23.99131775 107.01501465 C-24.01582184 98.74709914 -24.05141964 90.47925717 -24.09594727 82.21142578 C-24.12267124 77.15819281 -24.1397524 72.10500238 -24.15081596 67.05171204 C-24.15704117 65.12191698 -24.16706549 63.19213042 -24.18089485 61.26237488 C-24.20002728 58.56874134 -24.20699528 55.87533276 -24.21118164 53.18164062 C-24.22432404 51.97686821 -24.22432404 51.97686821 -24.23773193 50.74775696 C-24.22789599 45.22789599 -24.22789599 45.22789599 -22 43 C-19.75341797 42.86474609 -19.75341797 42.86474609 -16.9921875 43.0234375 C-16.1038623 43.06903809 -15.21553711 43.11463867 -14.30029297 43.16162109 C-13.16994629 43.23203613 -12.03959961 43.30245117 -10.875 43.375 C-7.28625 43.58125 -3.6975 43.7875 0 44 C0 29.48 0 14.96 0 0 Z " fill="#CCAF72" transform="translate(336,315)"/>
<path d="M0 0 C7.59 0 15.18 0 23 0 C23 14.85 23 29.7 23 45 C15.41 45 7.82 45 0 45 C-0.84346099 29.81770215 -0.89279569 15.17752667 0 0 Z " fill="#2C132B" transform="translate(697,315)"/>
<path d="M0 0 C14.85 0 29.7 0 45 0 C45 7.59 45 15.18 45 23 C30.15 23 15.3 23 0 23 C0 15.41 0 7.82 0 0 Z " fill="#CCD4CF" transform="translate(382,697)"/>
<path d="M0 0 C14.85 0 29.7 0 45 0 C45 7.59 45 15.18 45 23 C30.15 23 15.3 23 0 23 C0 15.41 0 7.82 0 0 Z " fill="#150806" transform="translate(292,697)"/>
<path d="M0 0 C7.59 0 15.18 0 23 0 C23 14.85 23 29.7 23 45 C15.41 45 7.82 45 0 45 C0 30.15 0 15.3 0 0 Z " fill="#C98251" transform="translate(472,607)"/>
<path d="M0 0 C14.85 0 29.7 0 45 0 C45 7.59 45 15.18 45 23 C30.15 23 15.3 23 0 23 C0 15.41 0 7.82 0 0 Z " fill="#140806" transform="translate(292,607)"/>
<path d="M0 0 C14.85 0 29.7 0 45 0 C45 7.59 45 15.18 45 23 C30.15 23 15.3 23 0 23 C0 15.41 0 7.82 0 0 Z " fill="#1C071D" transform="translate(562,562)"/>
<path d="M0 0 C7.59 0 15.18 0 23 0 C23 14.85 23 29.7 23 45 C15.41 45 7.82 45 0 45 C-0.16555088 38.91282145 -0.327961 32.82573294 -0.48217773 26.73828125 C-0.5356348 24.66629175 -0.59096697 22.59434976 -0.64819336 20.52246094 C-0.73000096 17.54893237 -0.80512222 14.57529961 -0.87890625 11.6015625 C-0.90594131 10.67131256 -0.93297638 9.74106262 -0.96083069 8.78262329 C-0.98092697 7.92188202 -1.00102325 7.06114075 -1.02172852 6.17431641 C-1.04171402 5.41486725 -1.06169952 4.65541809 -1.08229065 3.87295532 C-1 2 -1 2 0 0 Z " fill="#CD997E" transform="translate(607,517)"/>
<path d="M0 0 C14.85 0 29.7 0 45 0 C45 7.59 45 15.18 45 23 C30.15 23 15.3 23 0 23 C0 15.41 0 7.82 0 0 Z " fill="#2E132A" transform="translate(360,247)"/>
<path d="M0 0 C14.85 0 29.7 0 45 0 C45 7.59 45 15.18 45 23 C30.15 23 15.3 23 0 23 C0 15.41 0 7.82 0 0 Z " fill="#2D132B" transform="translate(607,112)"/>
<path d="M0 0 C7.59 0 15.18 0 23 0 C23.02290513 6.24801086 23.04283339 12.49587715 23.05493164 18.74389648 C23.05997298 20.87118014 23.06680591 22.99846031 23.07543945 25.12573242 C23.08751379 28.17627826 23.09323014 31.22677845 23.09765625 34.27734375 C23.10281754 35.23462875 23.10797882 36.19191376 23.11329651 37.1782074 C23.11340981 38.49946373 23.11340981 38.49946373 23.11352539 39.84741211 C23.115746 40.62684677 23.11796661 41.40628143 23.12025452 42.20933533 C23 44 23 44 22 45 C14.74 45 7.48 45 0 45 C0 30.15 0 15.3 0 0 Z " fill="#2D132A" transform="translate(112,270)"/>
<path d="M0 0 C14.85 0 29.7 0 45 0 C45 7.26 45 14.52 45 22 C30.15 22 15.3 22 0 22 C0 14.74 0 7.48 0 0 Z " fill="#140807" transform="translate(540,675)"/>
<path d="M0 0 C7.26 0 14.52 0 22 0 C22 14.85 22 29.7 22 45 C14.74 45 7.48 45 0 45 C0 30.15 0 15.3 0 0 Z " fill="#140806" transform="translate(585,630)"/>
<path d="M0 0 C7.26 0 14.52 0 22 0 C22 14.85 22 29.7 22 45 C14.74 45 7.48 45 0 45 C0 30.15 0 15.3 0 0 Z " fill="#C68254" transform="translate(405,607)"/>
<path d="M0 0 C1.91091919 -0.36076355 1.91091919 -0.36076355 4.26611328 -0.34057617 C5.14687531 -0.34034958 6.02763733 -0.34012299 6.93508911 -0.33988953 C7.88721283 -0.32440567 8.83933655 -0.30892181 9.8203125 -0.29296875 C10.79410858 -0.28872391 11.76790466 -0.28447906 12.77120972 -0.28010559 C15.88941805 -0.26327786 19.00698617 -0.22561811 22.125 -0.1875 C24.23566777 -0.17245846 26.34634564 -0.15876914 28.45703125 -0.14648438 C33.63846746 -0.11590942 38.81851497 -0.05719546 44 0 C44 7.26 44 14.52 44 22 C29.15 22 14.3 22 -1 22 C-2 3 -2 3 0 0 Z " fill="#CD997F" transform="translate(563,540)"/>
<path d="M0 0 C14.85 0 29.7 0 45 0 C45 7.26 45 14.52 45 22 C30.15 22 15.3 22 0 22 C0 14.74 0 7.48 0 0 Z " fill="#2B0200" transform="translate(495,540)"/>
<path d="M0 0 C14.85 0 29.7 0 45 0 C45 7.26 45 14.52 45 22 C30.15 22 15.3 22 0 22 C0 14.74 0 7.48 0 0 Z " fill="#020812" transform="translate(360,495)"/>
<path d="M0 0 C7.26 0 14.52 0 22 0 C22 14.85 22 29.7 22 45 C14.74 45 7.48 45 0 45 C0 30.15 0 15.3 0 0 Z " fill="#2A0200" transform="translate(540,495)"/>
<path d="M0 0 C7.26 0 14.52 0 22 0 C22 14.85 22 29.7 22 45 C14.74 45 7.48 45 0 45 C0 30.15 0 15.3 0 0 Z " fill="#775952" transform="translate(270,270)"/>
<path d="M0 0 C14.85 0 29.7 0 45 0 C45 7.26 45 14.52 45 22 C30.15 22 15.3 22 0 22 C0 14.74 0 7.48 0 0 Z " fill="#2E132A" transform="translate(697,225)"/>
<path d="M0 0 C7.26 0 14.52 0 22 0 C22 14.85 22 29.7 22 45 C14.74 45 7.48 45 0 45 C0 30.15 0 15.3 0 0 Z " fill="#2C132A" transform="translate(270,135)"/>
<path d="M0 0 C66.66 0 133.32 0 202 0 C202 0.99 202 1.98 202 3 C175.95778183 3.0233312 149.91556521 3.04098027 123.8733387 3.05181217 C111.7822548 3.05697466 99.69117739 3.06401646 87.60009766 3.07543945 C77.06498774 3.08538773 66.52988251 3.09185377 55.99476802 3.09408849 C50.41338767 3.09539535 44.83202075 3.09847967 39.25064468 3.10573006 C34.00259278 3.11249253 28.7545599 3.11461649 23.50650406 3.11310768 C21.57549944 3.11338391 19.64449421 3.11538769 17.71349335 3.11920547 C15.08673263 3.12414624 12.46004471 3.12299684 9.83328247 3.12025452 C8.67473651 3.12462378 8.67473651 3.12462378 7.49278557 3.12908131 C2.22824242 3.11412121 2.22824242 3.11412121 0 2 C0 1.34 0 0.68 0 0 Z " fill="#250712" transform="translate(360,585)"/>
<path d="M0 0 C22.44 0 44.88 0 68 0 C68 14.85 68 29.7 68 45 C67.01 44.67 66.02 44.34 65 44 C64.3125 41.9375 64.3125 41.9375 64 40 C64.99 39.67 65.98 39.34 67 39 C66.67 38.34 66.34 37.68 66 37 C65.9025919 34.94193236 65.86923123 32.88068299 65.8671875 30.8203125 C65.86589844 29.58152344 65.86460937 28.34273437 65.86328125 27.06640625 C65.86714844 25.76574219 65.87101563 24.46507812 65.875 23.125 C65.87113281 21.83207031 65.86726562 20.53914063 65.86328125 19.20703125 C65.86521484 17.34498047 65.86521484 17.34498047 65.8671875 15.4453125 C65.86831543 14.30594238 65.86944336 13.16657227 65.87060547 11.99267578 C65.9806715 9.44703531 66.33969047 7.43358819 67 5 C58.67262036 5.10734957 50.34533569 5.2199515 42.01812077 5.33933926 C38.1518399 5.39460355 34.28555152 5.448029 30.41918945 5.49731445 C26.69089913 5.5449065 22.96270348 5.59724715 19.23452568 5.65294075 C17.80913067 5.67338778 16.38370968 5.69209691 14.95826912 5.70907402 C12.96829459 5.73306596 10.97840345 5.76370136 8.98852539 5.79467773 C7.28642662 5.81799416 7.28642662 5.81799416 5.54994202 5.84178162 C3.06584162 5.71350527 3.06584162 5.71350527 2 7 C2.05025523 10.53157242 2.19824672 14.05367639 2.35546875 17.58203125 C2 21 2 21 0.17578125 23.44921875 C-2 25 -2 25 -5 25 C-5 24.34 -5 23.68 -5 23 C-5.99 23.33 -6.98 23.66 -8 24 C-9.74775498 24.10583226 -11.49913266 24.15593441 -13.25 24.17358398 C-14.32121094 24.18707382 -15.39242187 24.20056366 -16.49609375 24.21446228 C-17.65238281 24.22490067 -18.80867188 24.23533905 -20 24.24609375 C-22.43750374 24.27902098 -24.87500365 24.3122328 -27.3125 24.34570312 C-31.16403664 24.39320738 -35.0155565 24.43765812 -38.8671875 24.47680664 C-42.57828761 24.51641258 -46.28907224 24.56797392 -50 24.62109375 C-51.15628906 24.6295079 -52.31257813 24.63792206 -53.50390625 24.64659119 C-54.57511719 24.66323318 -55.64632813 24.67987518 -56.75 24.69702148 C-58.16539062 24.71248268 -58.16539062 24.71248268 -59.609375 24.72825623 C-62.2634252 24.84543382 -62.2634252 24.84543382 -65 27 C-65.58592634 30.11610554 -65.58592634 30.11610554 -65.6875 33.625 C-65.75324219 34.81351562 -65.81898438 36.00203125 -65.88671875 37.2265625 C-65.94279297 38.59941406 -65.94279297 38.59941406 -66 40 C-66.33 40 -66.66 40 -67 40 C-67 34.06 -67 28.12 -67 22 C-44.89 22 -22.78 22 0 22 C0 14.74 0 7.48 0 0 Z " fill="#D4BCAB" transform="translate(472,225)"/>
<path d="M0 0 C0.33 0 0.66 0 1 0 C1.33 6.6 1.66 13.2 2 20 C4.26239532 19.83668686 6.52479065 19.67337372 8.85574341 19.50511169 C18.01111576 18.90415506 27.13686153 18.87968931 36.30810547 18.91821289 C38.08059604 18.92177928 39.85308764 18.92486242 41.62557983 18.92750549 C45.40567137 18.93399573 49.18573814 18.9435132 52.9658165 18.95540047 C58.94092016 18.9738447 64.91601821 18.98332984 70.8911438 18.99131775 C87.86869861 19.0153634 104.8462172 19.05155394 121.82373047 19.09594727 C131.22802123 19.12045922 140.63229845 19.13783852 150.03661644 19.14750665 C155.98046203 19.15405485 161.924195 19.16962031 167.8680017 19.19182408 C171.55007768 19.20351524 175.23212595 19.20691904 178.9142189 19.20792198 C180.6259363 19.21007694 182.33765321 19.21569406 184.04934692 19.2249527 C186.37754945 19.23706444 188.70543671 19.23699976 191.03366089 19.23377991 C192.3384181 19.23692231 193.64317532 19.24006472 194.98747063 19.24330235 C198.11368858 19.31823729 198.11368858 19.31823729 200 17 C200.14517744 14.0906442 200.18630796 11.280054 200.125 8.375 C200.11597656 7.57320312 200.10695313 6.77140625 200.09765625 5.9453125 C200.07406223 3.96341477 200.03819065 1.98167019 200 0 C200.66 0 201.32 0 202 0 C202 7.26 202 14.52 202 22 C135.34 22 68.68 22 0 22 C0 14.74 0 7.48 0 0 Z " fill="#C69990" transform="translate(360,563)"/>
<path d="M0 0 C7.59 0 15.18 0 23 0 C23 7.59 23 15.18 23 23 C15.41 23 7.82 23 0 23 C0 15.41 0 7.82 0 0 Z " fill="#150806" transform="translate(562,607)"/>
<path d="M0 0 C7.59 0 15.18 0 23 0 C23 7.59 23 15.18 23 23 C15.41 23 7.82 23 0 23 C0 15.41 0 7.82 0 0 Z " fill="#2A0200" transform="translate(472,517)"/>
<path d="M0 0 C7.59 0 15.18 0 23 0 C23 7.59 23 15.18 23 23 C15.41 23 7.82 23 0 23 C0 15.41 0 7.82 0 0 Z " fill="#D0DBD3" transform="translate(337,427)"/>
<path d="M0 0 C7.59 0 15.18 0 23 0 C23 7.59 23 15.18 23 23 C15.41 23 7.82 23 0 23 C0 15.41 0 7.82 0 0 Z " fill="#C8DAEB" transform="translate(652,382)"/>
<path d="M0 0 C7.59 0 15.18 0 23 0 C23 7.59 23 15.18 23 23 C15.41 23 7.82 23 0 23 C0 15.41 0 7.82 0 0 Z " fill="#D4BDA1" transform="translate(607,337)"/>
<path d="M0 0 C7.59 0 15.18 0 23 0 C23 7.59 23 15.18 23 23 C15.41 23 7.82 23 0 23 C0 15.41 0 7.82 0 0 Z " fill="#C3DAEE" transform="translate(292,292)"/>
<path d="M0 0 C7.59 0 15.18 0 23 0 C23 7.59 23 15.18 23 23 C15.41 23 7.82 23 0 23 C0 15.41 0 7.82 0 0 Z " fill="#2D1329" transform="translate(742,112)"/>
<path d="M0 0 C7.59 0 15.18 0 23 0 C23 7.59 23 15.18 23 23 C15.41 23 7.82 23 0 23 C0 15.41 0 7.82 0 0 Z " fill="#2D132A" transform="translate(247,112)"/>
<path d="M0 0 C7.59 0 15.18 0 23 0 C23 7.59 23 15.18 23 23 C17.5859375 23.0309375 17.5859375 23.0309375 12.0625 23.0625 C10.92304932 23.071604 9.78359863 23.08070801 8.60961914 23.09008789 C7.71879639 23.09258545 6.82797363 23.09508301 5.91015625 23.09765625 C4.53549194 23.10551147 4.53549194 23.10551147 3.13305664 23.11352539 C1 23 1 23 0 22 C-0.08700342 20.36527118 -0.10701063 18.72685945 -0.09765625 17.08984375 C-0.09515869 16.199021 -0.09266113 15.30819824 -0.09008789 14.39038086 C-0.08098389 13.25093018 -0.07187988 12.11147949 -0.0625 10.9375 C-0.041875 7.328125 -0.02125 3.71875 0 0 Z " fill="#CBAE73" transform="translate(337,292)"/>
<path d="M0 0 C7.26 0 14.52 0 22 0 C22 7.59 22 15.18 22 23 C14.74 23 7.48 23 0 23 C0 15.41 0 7.82 0 0 Z " fill="#BFBFB1" transform="translate(405,742)"/>
<path d="M0 0 C7.59 0 15.18 0 23 0 C23 7.26 23 14.52 23 22 C15.41 22 7.82 22 0 22 C0 14.74 0 7.48 0 0 Z " fill="#150805" transform="translate(337,675)"/>
<path d="M0 0 C7.59 0 15.18 0 23 0 C23 7.26 23 14.52 23 22 C15.41 22 7.82 22 0 22 C0 14.74 0 7.48 0 0 Z " fill="#CE927E" transform="translate(517,630)"/>
<path d="M0 0 C7.59 0 15.18 0 23 0 C23 7.26 23 14.52 23 22 C15.41 22 7.82 22 0 22 C0 14.74 0 7.48 0 0 Z " fill="#1D071A" transform="translate(607,540)"/>
<path d="M0 0 C7.26 0 14.52 0 22 0 C22 7.59 22 15.18 22 23 C14.74 23 7.48 23 0 23 C0 15.41 0 7.82 0 0 Z " fill="#050A00" transform="translate(585,472)"/>
<path d="M0 0 C7.59 0 15.18 0 23 0 C23 7.26 23 14.52 23 22 C15.41 22 7.82 22 0 22 C0 14.74 0 7.48 0 0 Z " fill="#0C0614" transform="translate(157,405)"/>
<path d="M0 0 C7.26 0 14.52 0 22 0 C22 7.59 22 15.18 22 23 C14.74 23 7.48 23 0 23 C0 15.41 0 7.82 0 0 Z " fill="#CADBEE" transform="translate(405,382)"/>
<path d="M0 0 C7.26 0 14.52 0 22 0 C22 7.59 22 15.18 22 23 C14.74 23 7.48 23 0 23 C0 15.41 0 7.82 0 0 Z " fill="#2E1328" transform="translate(675,247)"/>
<path d="M0 0 C7.26 0 14.52 0 22 0 C22 7.59 22 15.18 22 23 C14.74 23 7.48 23 0 23 C0 15.41 0 7.82 0 0 Z " fill="#2E1328" transform="translate(630,247)"/>
<path d="M0 0 C7.59 0 15.18 0 23 0 C23 7.26 23 14.52 23 22 C15.41 22 7.82 22 0 22 C0 14.74 0 7.48 0 0 Z " fill="#2E1329" transform="translate(607,225)"/>
<path d="M0 0 C7.26 0 14.52 0 22 0 C22 7.59 22 15.18 22 23 C14.74 23 7.48 23 0 23 C0 15.41 0 7.82 0 0 Z " fill="#775953" transform="translate(540,202)"/>
<path d="M0 0 C7.26 0 14.52 0 22 0 C22 7.59 22 15.18 22 23 C14.74 23 7.48 23 0 23 C0 15.41 0 7.82 0 0 Z " fill="#2D1329" transform="translate(135,112)"/>
<path d="M0 0 C7.59 0 15.18 0 23 0 C23.020625 3.444375 23.04125 6.88875 23.0625 10.4375 C23.071604 11.52474365 23.08070801 12.6119873 23.09008789 13.73217773 C23.09258545 14.58239502 23.09508301 15.4326123 23.09765625 16.30859375 C23.10551147 17.62041626 23.10551147 17.62041626 23.11352539 18.95874023 C23 21 23 21 22 22 C20.36527118 22.08700342 18.72685945 22.10701063 17.08984375 22.09765625 C16.199021 22.09515869 15.30819824 22.09266113 14.39038086 22.09008789 C13.25093018 22.08098389 12.11147949 22.07187988 10.9375 22.0625 C7.328125 22.041875 3.71875 22.02125 0 22 C0 14.74 0 7.48 0 0 Z " fill="#CC977C" transform="translate(292,675)"/>
<path d="M0 0 C3.42375 -0.020625 6.8475 -0.04125 10.375 -0.0625 C11.45313965 -0.071604 12.5312793 -0.08070801 13.64208984 -0.09008789 C14.48980957 -0.09258545 15.3375293 -0.09508301 16.2109375 -0.09765625 C17.51490479 -0.10551147 17.51490479 -0.10551147 18.84521484 -0.11352539 C21 0 21 0 23 1 C23 7.93 23 14.86 23 22 C15.41 22 7.82 22 0 22 C0 14.74 0 7.48 0 0 Z " fill="#C3816D" transform="translate(292,450)"/>
<path d="M0 0 C7.26 0 14.52 0 22 0 C22 7.26 22 14.52 22 22 C14.74 22 7.48 22 0 22 C0 14.74 0 7.48 0 0 Z " fill="#D1DAD4" transform="translate(405,450)"/>
<path d="M0 0 C7.26 0 14.52 0 22 0 C22 7.26 22 14.52 22 22 C14.74 22 7.48 22 0 22 C0 14.74 0 7.48 0 0 Z " fill="#CDAE71" transform="translate(585,405)"/>
<path d="M0 0 C7.26 0 14.52 0 22 0 C22 7.26 22 14.52 22 22 C14.74 22 7.48 22 0 22 C0 14.74 0 7.48 0 0 Z " fill="#C3DAEE" transform="translate(270,315)"/>
<path d="M0 0 C7.26 0 14.52 0 22 0 C22 7.26 22 14.52 22 22 C14.74 22 7.48 22 0 22 C0 14.74 0 7.48 0 0 Z " fill="#2C1329" transform="translate(135,315)"/>
<path d="M0 0 C7.26 0 14.52 0 22 0 C22 7.26 22 14.52 22 22 C14.74 22 7.48 22 0 22 C0 14.74 0 7.48 0 0 Z " fill="#2D132A" transform="translate(765,225)"/>
<path d="M0 0 C7.26 0 14.52 0 22 0 C22 7.26 22 14.52 22 22 C14.74 22 7.48 22 0 22 C0 14.74 0 7.48 0 0 Z " fill="#2C1429" transform="translate(585,135)"/>
<path d="M0 0 C7.59 0 15.18 0 23 0 C23 37.29 23 74.58 23 113 C21.515 112.505 21.515 112.505 20 112 C20.33 76.36 20.66 40.72 21 4 C8.88607602 2.8852592 8.88607602 2.8852592 3 7 C0.81180778 9.18819222 1.81313987 14.42885773 1.79467773 17.47680664 C1.78477814 18.47181686 1.77487854 19.46682709 1.76467896 20.49198914 C1.7329596 23.79802021 1.70826545 27.10406567 1.68359375 30.41015625 C1.66303322 32.69559616 1.642037 34.98103218 1.62062073 37.26646423 C1.56530693 43.29494086 1.51593884 49.32345233 1.46777344 55.35198975 C1.41762619 61.49836342 1.36190484 67.64468621 1.30664062 73.79101562 C1.19894528 85.86063367 1.09752574 97.9302958 1 110 C0.67 110 0.34 110 0 110 C0 73.7 0 37.4 0 0 Z " fill="#D0D6E5" transform="translate(247,337)"/>
<path d="M0 0 C7.59 0 15.18 0 23 0 C22.67 1.32 22.34 2.64 22 4 C21.01 3.835 20.02 3.67 19 3.5 C13.20631969 2.67903316 7.73905579 2.74892555 2 4 C2.01047363 5.17095215 2.02094727 6.3419043 2.03173828 7.54833984 C2.06787497 11.88310705 2.09087733 16.21786089 2.10986328 20.55273438 C2.11993534 22.43068682 2.13359362 24.30862353 2.15087891 26.18652344 C2.17507453 28.8822009 2.18647083 31.57767146 2.1953125 34.2734375 C2.20563507 35.11619232 2.21595764 35.95894714 2.22659302 36.82723999 C2.22699144 38.88621247 2.12257588 40.94467935 2 43 C1.34 43.66 0.68 44.32 0 45 C0 30.15 0 15.3 0 0 Z M-22 45 C-14.74 45 -7.48 45 0 45 C0 45.33 0 45.66 0 46 C-1.80597656 46.09087891 -1.80597656 46.09087891 -3.6484375 46.18359375 C-5.22397077 46.26799732 -6.79949096 46.35264541 -8.375 46.4375 C-9.1690625 46.47681641 -9.963125 46.51613281 -10.78125 46.55664062 C-15.02601221 46.68893404 -15.02601221 46.68893404 -19 48 C-19 76.38 -19 104.76 -19 134 C-12.73 134 -6.46 134 0 134 C0 134.33 0 134.66 0 135 C-7.26 135 -14.52 135 -22 135 C-22 105.3 -22 75.6 -22 45 Z " fill="#0C0702" transform="translate(337,315)"/>
<path d="M0 0 C0.33 0 0.66 0 1 0 C1 14.85 1 29.7 1 45 C-6.26 45 -13.52 45 -21 45 C-21 74.7 -21 104.4 -21 135 C-13.74 135 -6.48 135 1 135 C1 142.26 1 149.52 1 157 C0.01 156.67 -0.98 156.34 -2 156 C-1.67 149.4 -1.34 142.8 -1 136 C-7.49229567 136.36810882 -7.49229567 136.36810882 -13.98388672 136.74829102 C-14.79100098 136.79139404 -15.59811523 136.83449707 -16.4296875 136.87890625 C-17.25710449 136.9260376 -18.08452148 136.97316895 -18.93701172 137.02172852 C-21 137 -21 137 -23 136 C-23 135.34 -23 134.68 -23 134 C-23.66 133.67 -24.32 133.34 -25 133 C-24.67 132.67 -24.34 132.34 -24 132 C-23.91549256 129.30195607 -23.89568271 126.62979797 -23.91821289 123.93188477 C-23.92127945 123.08639069 -23.92434601 122.24089661 -23.92750549 121.36978149 C-23.9346779 119.52762989 -23.94407678 117.68548595 -23.95540047 115.84335518 C-23.97271401 112.93169271 -23.98306522 110.02008454 -23.99131775 107.10838318 C-24.0158415 98.82765557 -24.05139828 90.54700101 -24.09594727 82.26635742 C-24.12267272 77.2077934 -24.13975357 72.1492719 -24.15081596 67.09065056 C-24.15704204 65.15806444 -24.16706743 63.22548682 -24.18089485 61.29294014 C-24.20002876 58.59440799 -24.20699562 55.89610042 -24.21118164 53.19750977 C-24.21994324 52.39275711 -24.22870483 51.58800446 -24.23773193 50.75886536 C-24.22789562 45.22789562 -24.22789562 45.22789562 -22 43 C-19.75341797 42.86474609 -19.75341797 42.86474609 -16.9921875 43.0234375 C-16.1038623 43.06903809 -15.21553711 43.11463867 -14.30029297 43.16162109 C-13.16994629 43.23203613 -12.03959961 43.30245117 -10.875 43.375 C-7.28625 43.58125 -3.6975 43.7875 0 44 C0 29.48 0 14.96 0 0 Z " fill="#C1AF89" transform="translate(336,315)"/>
<path d="M0 0 C0.66 0 1.32 0 2 0 C2 37.29 2 74.58 2 113 C-0.31 113 -2.62 113 -5 113 C-4.505 112.01 -4.505 112.01 -4 111 C-3.01 111 -2.02 111 -1 111 C-1.00444122 109.72293182 -1.00888245 108.44586365 -1.01345825 107.13009644 C-1.05400395 95.09416925 -1.08398426 83.05825592 -1.10362434 71.02227592 C-1.11406092 64.83448312 -1.12821798 58.64674545 -1.15087891 52.45898438 C-1.17261155 46.48732079 -1.18456957 40.51571024 -1.18975449 34.54401016 C-1.19344946 32.26585175 -1.20066478 29.98769623 -1.21146011 27.70956039 C-1.22598044 24.51838663 -1.22797769 21.32743196 -1.22705078 18.13623047 C-1.23783661 16.72389885 -1.23783661 16.72389885 -1.24884033 15.28303528 C-1.23364476 10.44741873 -0.89135484 6.5402938 1 2 C0.34 1.67 -0.32 1.34 -1 1 C-0.67 0.67 -0.34 0.34 0 0 Z " fill="#BAB3B2" transform="translate(245,337)"/>
<path d="M0 0 C14.85 0 29.7 0 45 0 C45 5.61 45 11.22 45 17 C44.67 17 44.34 17 44 17 C44 12.05 44 7.1 44 2 C29.81 2 15.62 2 1 2 C0.91392639 10.79486724 0.91392639 10.79486724 3 19 C4.14065918 19.02505615 5.28131836 19.0501123 6.45654297 19.07592773 C10.67964341 19.16994293 14.90257709 19.27017787 19.12548828 19.37231445 C20.95487575 19.41568565 22.78430427 19.45735911 24.61376953 19.49731445 C27.24003486 19.55496418 29.8660931 19.61867365 32.4921875 19.68359375 C33.31306854 19.70030624 34.13394958 19.71701874 34.97970581 19.73423767 C40.77225659 19.88612829 40.77225659 19.88612829 43 21 C43 20.34 43 19.68 43 19 C43.66 19 44.32 19 45 19 C45 19.99 45 20.98 45 22 C30.15 22 15.3 22 0 22 C0 14.74 0 7.48 0 0 Z " fill="#0E0603" transform="translate(360,495)"/>
<path d="M0 0 C7.59 0 15.18 0 23 0 C23 22.44 23 44.88 23 68 C15.41 68 7.82 68 0 68 C0 67.67 0 67.34 0 67 C1.18078125 66.93941406 2.3615625 66.87882813 3.578125 66.81640625 C5.1354277 66.73197418 6.69271879 66.64732751 8.25 66.5625 C9.02730469 66.52318359 9.80460937 66.48386719 10.60546875 66.44335938 C11.35957031 66.40146484 12.11367188 66.35957031 12.890625 66.31640625 C13.58188477 66.27974854 14.27314453 66.24309082 14.98535156 66.20532227 C17.06742842 65.99312805 18.97731369 65.52579633 21 65 C20.91564222 57.35900248 20.82077672 49.71819688 20.71247292 42.07750225 C20.6625143 38.52965396 20.61618445 34.98183537 20.578125 31.43383789 C20.53421731 27.35543986 20.4745677 23.27740455 20.4140625 19.19921875 C20.40251129 17.92414963 20.39096008 16.64908051 20.37905884 15.33537292 C20.35918915 14.15437515 20.33931946 12.97337738 20.31884766 11.7565918 C20.30552399 10.71512497 20.29220032 9.67365814 20.2784729 8.60063171 C20.17782224 5.7651949 20.17782224 5.7651949 18 3 C16.07558585 2.49468134 16.07558585 2.49468134 13.8671875 2.48828125 C13.06152344 2.45283203 12.25585938 2.41738281 11.42578125 2.38085938 C10.58402344 2.35830078 9.74226563 2.33574219 8.875 2.3125 C8.02550781 2.27833984 7.17601562 2.24417969 6.30078125 2.20898438 C4.20098895 2.12640827 2.10051436 2.06153022 0 2 C0 1.34 0 0.68 0 0 Z " fill="#BE8564" transform="translate(472,697)"/>
<path d="M0 0 C22.44 0 44.88 0 68 0 C68 7.59 68 15.18 68 23 C53.48 23 38.96 23 24 23 C24.66 22.01 25.32 21.02 26 20 C28.91515791 19.80480051 31.60308105 19.79358926 34.5078125 19.92578125 C35.34843231 19.95222214 36.18905212 19.97866302 37.05514526 20.00590515 C39.74580647 20.09382985 42.43514201 20.2029203 45.125 20.3125 C46.94656675 20.37574211 48.76818181 20.43760871 50.58984375 20.49804688 C55.06061322 20.64939631 59.53030681 20.81973479 64 21 C66.00554786 14.98335642 65 8.3420992 65 2 C43.55 1.67 22.1 1.34 0 1 C0 0.67 0 0.34 0 0 Z " fill="#C2B087" transform="translate(337,472)"/>
<path d="M0 0 C7.26 0 14.52 0 22 0 C22 6.93 22 13.86 22 21 C21.34 21 20.68 21 20 21 C19.505 11.595 19.505 11.595 19 2 C13.39 1.67 7.78 1.34 2 1 C2.1179265 6.82086707 2.24215042 12.6415519 2.37231445 18.4621582 C2.41573144 20.44389146 2.45740137 22.42566378 2.49731445 24.4074707 C2.55485383 27.2496317 2.61859445 30.09159483 2.68359375 32.93359375 C2.70030624 33.82525742 2.71701874 34.71692108 2.73423767 35.63560486 C2.436587 39.63948395 2.436587 39.63948395 4 43 C5.41327947 43.15620555 6.8335459 43.25056173 8.25390625 43.31640625 C9.40741577 43.37356812 9.40741577 43.37356812 10.58422852 43.43188477 C12.0584729 43.49653931 12.0584729 43.49653931 13.5625 43.5625 C16.676875 43.706875 19.79125 43.85125 23 44 C23 50.93 23 57.86 23 65 C22.67 65 22.34 65 22 65 C22 58.4 22 51.8 22 45 C14.74 45 7.48 45 0 45 C0 30.15 0 15.3 0 0 Z " fill="#B88267" transform="translate(585,427)"/>
<path d="M0 0 C0.66 0.99 1.32 1.98 2 3 C1.67 3.99 1.34 4.98 1 6 C-4.22754771 6.87720339 -9.19508881 7.10858595 -14.48828125 7.02734375 C-16.09700319 7.01471389 -17.70572725 7.00235176 -19.31445312 6.99023438 C-21.82729845 6.96529605 -24.34003143 6.9371375 -26.8527832 6.90405273 C-29.2937901 6.87397532 -31.73464907 6.85613068 -34.17578125 6.83984375 C-34.93095535 6.82638412 -35.68612946 6.8129245 -36.46418762 6.79905701 C-38.31065204 6.790119 -40.15702284 6.88621974 -42 7 C-42.66 7.66 -43.32 8.32 -44 9 C-44 14.28 -44 19.56 -44 25 C-30.47 24.67 -16.94 24.34 -3 24 C-2.505 25.485 -2.505 25.485 -2 27 C-16.52 27 -31.04 27 -46 27 C-46 19.74 -46 12.48 -46 5 C-31.15 5 -16.3 5 -1 5 C-0.67 3.35 -0.34 1.7 0 0 Z " fill="#D0BDAD" transform="translate(406,265)"/>
<path d="M0 0 C1.32 0.33 2.64 0.66 4 1 C4 7.27 4 13.54 4 20 C9.28 20 14.56 20 20 20 C19.67 19.01 19.34 18.02 19 17 C18.97827148 15.09887695 18.97827148 15.09887695 19.12109375 12.98828125 C19.16943359 12.23095703 19.21777344 11.47363281 19.26757812 10.69335938 C19.32365234 9.90767578 19.37972656 9.12199219 19.4375 8.3125 C19.48970703 7.51521484 19.54191406 6.71792969 19.59570312 5.89648438 C19.72519022 3.93063478 19.86190041 1.96526335 20 0 C20.66 0 21.32 0 22 0 C22 7.59 22 15.18 22 23 C14.74 23 7.48 23 0 23 C0 15.41 0 7.82 0 0 Z " fill="#0B0705" transform="translate(405,472)"/>
<path d="M0 0 C14.85 0 29.7 0 45 0 C45 0.33 45 0.66 45 1 C31.47 1.33 17.94 1.66 4 2 C3.67 7.94 3.34 13.88 3 20 C16.86 20 30.72 20 45 20 C45 20.66 45 21.32 45 22 C30.15 22 15.3 22 0 22 C0 14.74 0 7.48 0 0 Z " fill="#C69B90" transform="translate(315,540)"/>
<path d="M0 0 C5.94 0 11.88 0 18 0 C18 0.33 18 0.66 18 1 C12.39 1 6.78 1 1 1 C1.33 2.65 1.66 4.3 2 6 C2.08132286 7.51255005 2.11794526 9.02805745 2.11352539 10.54278564 C2.1134549 11.42328583 2.1133844 12.30378601 2.11331177 13.21096802 C2.10814545 14.1638974 2.10297913 15.11682678 2.09765625 16.09863281 C2.09546585 17.61887558 2.09546585 17.61887558 2.0932312 19.16983032 C2.08943091 21.36604552 2.08332035 23.56225766 2.07516479 25.758461 C2.06240541 29.22885247 2.05588713 32.69920576 2.05102539 36.1696167 C2.03959956 43.52976163 2.02034043 50.88987502 2 58.25 C1.97644523 66.79095987 1.95605236 75.33190206 1.94406128 83.87288666 C1.93755065 87.30145128 1.92504531 90.72996177 1.91235352 94.1585083 C1.90872345 96.24532015 1.90537141 98.3321325 1.90234375 100.41894531 C1.89717743 101.37997162 1.89201111 102.34099792 1.88668823 103.33114624 C1.88661774 104.20036713 1.88654724 105.06958801 1.88647461 105.96514893 C1.884254 106.7246648 1.88203339 107.48418068 1.87974548 108.26671219 C1.81155271 110.03037606 1.81155271 110.03037606 3 111 C4.41570123 111.08651611 5.835595 111.10704904 7.25390625 111.09765625 C8.10791016 111.09443359 8.96191406 111.09121094 9.84179688 111.08789062 C10.73962891 111.07951172 11.63746094 111.07113281 12.5625 111.0625 C13.91504883 111.05573242 13.91504883 111.05573242 15.29492188 111.04882812 C17.53001314 111.03700225 19.76497437 111.0205222 22 111 C22 111.66 22 112.32 22 113 C14.74 113 7.48 113 0 113 C0 75.71 0 38.42 0 0 Z " fill="#AD867E" transform="translate(270,337)"/>
<path d="M0 0 C3.24299151 2.38957269 5.50902342 4.2047869 7 8 C6.01 8.33 5.02 8.66 4 9 C3.67 21.54 3.34 34.08 3 47 C4.32 47.33 5.64 47.66 7 48 C5.02 48 3.04 48 1 48 C1 33.15 1 18.3 1 3 C-11.21 3 -23.42 3 -36 3 C-35.67 2.34 -35.34 1.68 -35 1 C-33.97527588 1.00523682 -32.95055176 1.01047363 -31.89477539 1.01586914 C-28.10604724 1.03391969 -24.31732291 1.0454322 -20.52856445 1.05493164 C-18.88630536 1.05997174 -17.24405077 1.06680378 -15.60180664 1.07543945 C-13.24624521 1.08751926 -10.89074291 1.09323139 -8.53515625 1.09765625 C-7.42733543 1.10539818 -7.42733543 1.10539818 -6.2971344 1.11329651 C-4.53101912 1.1134925 -2.76502854 1.06194719 -1 1 C-0.67 0.67 -0.34 0.34 0 0 Z " fill="#CBBFAD" transform="translate(449,312)"/>
<path d="M0 0 C7.26 0 14.52 0 22 0 C22 7.26 22 14.52 22 22 C21.01 22 20.02 22 19 22 C19 15.4 19 8.8 19 2 C17.35 2.33 15.7 2.66 14 3 C13.01 3 12.02 3 11 3 C11 2.34 11 1.68 11 1 C8.36 1.99 5.72 2.98 3 4 C2.67 9.94 2.34 15.88 2 22 C1.34 22 0.68 22 0 22 C0 14.74 0 7.48 0 0 Z " fill="#C4AF81" transform="translate(585,405)"/>
<path d="M0 0 C7.59 0 15.18 0 23 0 C23 7.59 23 15.18 23 23 C15.41 23 7.82 23 0 23 C0 15.41 0 7.82 0 0 Z M2 2 C1.67 7.94 1.34 13.88 1 20 C4.29677888 21.64838944 7.94316044 21.14272738 11.5625 21.125 C12.75262695 21.13080078 12.75262695 21.13080078 13.96679688 21.13671875 C17.7914162 21.50440225 17.7914162 21.50440225 21 20 C21.0983721 18.66956375 21.13078592 17.33406656 21.1328125 16 C21.13410156 15.195625 21.13539063 14.39125 21.13671875 13.5625 C21.13091797 12.2940625 21.13091797 12.2940625 21.125 11 C21.12886719 10.154375 21.13273437 9.30875 21.13671875 8.4375 C21.13478516 7.2309375 21.13478516 7.2309375 21.1328125 6 C21.13168457 5.2575 21.13055664 4.515 21.12939453 3.75 C21.18942216 1.97174189 21.18942216 1.97174189 20 1 C17.53018231 0.8997926 15.09448776 0.86122962 12.625 0.875 C11.93921875 0.87113281 11.2534375 0.86726563 10.546875 0.86328125 C7.42777362 0.86934954 4.98024365 1.00658545 2 2 Z " fill="#D7D4DC" transform="translate(292,292)"/>
<path d="M0 0 C7.26 0 14.52 0 22 0 C22 7.26 22 14.52 22 22 C11.11 22 0.22 22 -11 22 C-10.67 21.34 -10.34 20.68 -10 20 C-0.1 20 9.8 20 20 20 C20 14.06 20 8.12 20 2 C13.4 2 6.8 2 0 2 C0 1.34 0 0.68 0 0 Z " fill="#D2D5DF" transform="translate(315,495)"/>
<path d="M0 0 C0.99 0 1.98 0 3 0 C3.33 0.99 3.66 1.98 4 3 C3.01 3.495 3.01 3.495 2 4 C1.68758545 6.71446979 1.48663408 9.33909361 1.375 12.0625 C1.33632813 12.82111328 1.29765625 13.57972656 1.2578125 14.36132812 C1.16326438 16.24047195 1.08053244 18.12020336 1 20 C6.65965394 20.19207142 12.31951011 20.37082399 17.97998047 20.53710938 C19.90652819 20.59559792 21.83296799 20.65775936 23.75927734 20.72363281 C26.52421419 20.81755244 29.28926703 20.89836327 32.0546875 20.9765625 C32.9193161 21.00875885 33.7839447 21.0409552 34.67477417 21.0741272 C36.78265872 21.12723194 38.89271418 21.07310184 41 21 C43.17990127 19.234465 43.17990127 19.234465 43.22705078 17.02880859 C43.21134033 15.8505249 43.21134033 15.8505249 43.1953125 14.6484375 C43.18564453 13.37226562 43.18564453 13.37226562 43.17578125 12.0703125 C43.15902344 11.18085937 43.14226563 10.29140625 43.125 9.375 C43.11597656 8.4778125 43.10695313 7.580625 43.09765625 6.65625 C43.0740497 4.43723414 43.0411231 2.21874923 43 0 C43.66 0 44.32 0 45 0 C45 7.59 45 15.18 45 23 C30.15 23 15.3 23 0 23 C0 15.41 0 7.82 0 0 Z " fill="#C49487" transform="translate(540,652)"/>
<path d="M0 0 C2.13093906 1.06546953 3.36587557 2.29159719 5 4 C4.34 4 3.68 4 3 4 C3 9.61 3 15.22 3 21 C10.73675497 20.89178634 18.4734293 20.77965005 26.21002483 20.66066074 C29.80266543 20.60556145 33.39531434 20.55216279 36.98803711 20.50268555 C40.45699185 20.45484961 43.92585214 20.4025009 47.39469337 20.34705925 C49.35827285 20.31684397 51.32192195 20.29126902 53.28556824 20.26576233 C54.4864357 20.24581711 55.68730316 20.22587189 56.92456055 20.20532227 C57.97935104 20.18977798 59.03414154 20.1742337 60.12089539 20.15821838 C62.84341155 20.00860517 65.34640658 19.60970298 68 19 C68 19.99 68 20.98 68 22 C45.56 22 23.12 22 0 22 C0 14.74 0 7.48 0 0 Z " fill="#0B0701" transform="translate(337,450)"/>
<path d="M0 0 C14.85 0 29.7 0 45 0 C45 0.66 45 1.32 45 2 C30.81 2 16.62 2 2 2 C2.33 8.6 2.66 15.2 3 22 C2.01 22 1.02 22 0 22 C0 14.74 0 7.48 0 0 Z " fill="#D8B9AA" transform="translate(517,607)"/>
<path d="M0 0 C7.59 0 15.18 0 23 0 C23 7.59 23 15.18 23 23 C8.15 23 -6.7 23 -22 23 C-22 22.34 -22 21.68 -22 21 C-20.68 20.34 -19.36 19.68 -18 19 C-17.67 19.66 -17.34 20.32 -17 21 C2.305 21.495 2.305 21.495 22 22 C21.67 15.73 21.34 9.46 21 3 C14.83711407 3.03953271 14.83711407 3.03953271 8.67431641 3.09008789 C7.52455322 3.09383423 7.52455322 3.09383423 6.3515625 3.09765625 C5.17327881 3.10551147 5.17327881 3.10551147 3.97119141 3.11352539 C2 3 2 3 0 2 C0 1.34 0 0.68 0 0 Z " fill="#24040B" transform="translate(337,517)"/>
<path d="M0 0 C28.05 0 56.1 0 85 0 C85 7.26 85 14.52 85 22 C84.34 22 83.68 22 83 22 C83.04640625 20.89140625 83.0928125 19.7828125 83.140625 18.640625 C83.17815102 17.17711032 83.21455029 15.71356644 83.25 14.25 C83.28351563 13.52039063 83.31703125 12.79078125 83.3515625 12.0390625 C83.411469 8.74420521 83.37265523 6.53358827 81.45721436 3.79095459 C78.13923433 1.37262607 75.2489148 1.42663478 71.29394531 1.45410156 C70.52282913 1.44376389 69.75171295 1.43342621 68.95722961 1.42277527 C66.41398205 1.39332889 63.87152969 1.39184776 61.328125 1.390625 C59.56262696 1.37564453 57.79714294 1.35891766 56.03167725 1.34051514 C51.3890926 1.29681418 46.74669701 1.2768365 42.10394287 1.26177979 C37.36475432 1.24221856 32.62577023 1.20024746 27.88671875 1.16015625 C18.59120886 1.08482446 9.29574466 1.03455099 0 1 C0 0.67 0 0.34 0 0 Z " fill="#261624" transform="translate(657,90)"/>
<path d="M0 0 C0.33 0 0.66 0 1 0 C1 1.65 1 3.3 1 5 C-13.52 5 -28.04 5 -43 5 C-42.67 4.01 -42.34 3.02 -42 2 C-28.14 2 -14.28 2 0 2 C0 1.34 0 0.68 0 0 Z " fill="#1E0710" transform="translate(561,602)"/>
<path d="M0 0 C7.26 0 14.52 0 22 0 C22 7.26 22 14.52 22 22 C14.74 22 7.48 22 0 22 C0 14.74 0 7.48 0 0 Z M2 2 C0.40726856 5.18546289 0.89858167 8.63199348 0.9375 12.125 C0.958125 14.72375 0.97875 17.3225 1 20 C7.6 20 14.2 20 21 20 C21.020625 17.586875 21.04125 15.17375 21.0625 12.6875 C21.071604 11.93170654 21.08070801 11.17591309 21.09008789 10.3972168 C21.10287966 7.3160507 20.98131601 4.94394804 20 2 C14.06 2 8.12 2 2 2 Z " fill="#D4D6DE" transform="translate(270,315)"/>
<path d="M0 0 C14.85 0 29.7 0 45 0 C45 6.93 45 13.86 45 21 C44.34 21.66 43.68 22.32 43 23 C43 16.4 43 9.8 43 3 C38.77413718 1.9435343 34.83660172 1.7751567 30.515625 1.68359375 C29.29223419 1.6524221 29.29223419 1.6524221 28.04412842 1.62062073 C25.44616895 1.55538703 22.84811087 1.49636232 20.25 1.4375 C18.485667 1.39428986 16.72134387 1.35067478 14.95703125 1.30664062 C10.63812032 1.19897257 6.31913146 1.0997049 2 1 C1.67 8.26 1.34 15.52 1 23 C0.67 23 0.34 23 0 23 C0 15.41 0 7.82 0 0 Z " fill="#0B0503" transform="translate(360,292)"/>
<path d="M0 0 C7.59 0 15.18 0 23 0 C23 7.59 23 15.18 23 23 C15.74 23 8.48 23 1 23 C1 22.67 1 22.34 1 22 C7.6 21.34 14.2 20.68 21 20 C21.33 14.39 21.66 8.78 22 3 C18.70801809 3.14040213 15.41652554 3.28706875 12.125 3.4375 C11.18785156 3.47681641 10.25070312 3.51613281 9.28515625 3.55664062 C7.94130859 3.61948242 7.94130859 3.61948242 6.5703125 3.68359375 C5.74289551 3.72025146 4.91547852 3.75690918 4.06298828 3.79467773 C1.93820571 3.88238327 1.93820571 3.88238327 0 5 C-0.33 4.01 -0.66 3.02 -1 2 C-0.67 1.34 -0.34 0.68 0 0 Z " fill="#C29D8B" transform="translate(607,517)"/>
<path d="M0 0 C1.22125328 -0.00472824 1.22125328 -0.00472824 2.46717834 -0.009552 C3.34224533 -0.00752777 4.21731232 -0.00550354 5.11889648 -0.00341797 C6.47047096 -0.00485306 6.47047096 -0.00485306 7.84934998 -0.00631714 C9.75324575 -0.00699745 11.65714385 -0.00515352 13.56103516 -0.00097656 C16.48206767 0.00438 19.40294685 -0.00092978 22.32397461 -0.00732422 C24.17228224 -0.00666353 26.02058978 -0.00538257 27.86889648 -0.00341797 C29.18453331 -0.00645432 29.18453331 -0.00645432 30.52674866 -0.009552 C36.69756512 0.01443197 36.69756512 0.01443197 38.92749023 1.12939453 C38.92749023 1.78939453 38.92749023 2.44939453 38.92749023 3.12939453 C23.74749023 3.45939453 8.56749023 3.78939453 -7.07250977 4.12939453 C-7.07250977 3.13939453 -7.07250977 2.14939453 -7.07250977 1.12939453 C-4.35829878 0.22465754 -2.78729246 0.00309858 0 0 Z " fill="#260201" transform="translate(456.072509765625,693.87060546875)"/>
<path d="M0 0 C14.85 0 29.7 0 45 0 C45 0.33 45 0.66 45 1 C30.48 1 15.96 1 1 1 C1 7.27 1 13.54 1 20 C5.33125 20.0309375 5.33125 20.0309375 9.75 20.0625 C11.10496582 20.07615601 11.10496582 20.07615601 12.48730469 20.09008789 C13.20821289 20.09258545 13.92912109 20.09508301 14.671875 20.09765625 C15.77160645 20.10551147 15.77160645 20.10551147 16.89355469 20.11352539 C19.0461849 19.9975109 20.9314135 19.59073271 23 19 C23 19.99 23 20.98 23 22 C15.41 22 7.82 22 0 22 C0 14.74 0 7.48 0 0 Z " fill="#160500" transform="translate(607,495)"/>
<path d="M0 0 C14.85 0 29.7 0 45 0 C45 6.6 45 13.2 45 20 C44.01 20 43.02 20 42 20 C42 14.06 42 8.12 42 2 C36.66140443 1.97703281 31.32298062 1.95712265 25.984375 1.94506836 C24.16861388 1.94004259 22.3528568 1.93322097 20.53710938 1.92456055 C17.9257711 1.91241811 15.31448638 1.90675409 12.703125 1.90234375 C11.89256653 1.89718246 11.08200806 1.89202118 10.24688721 1.88670349 C6.6579583 1.88634704 3.45259214 2.02954053 0 3 C0 2.01 0 1.02 0 0 Z " fill="#D6B9A7" transform="translate(337,607)"/>
<path d="M0 0 C14.19 0 28.38 0 43 0 C42.34 0.99 41.68 1.98 41 3 C38.42388923 3.18355439 36.10546518 3.18364576 33.54296875 3.0390625 C32.80299149 3.01024994 32.06301422 2.98143738 31.3006134 2.95175171 C28.92871105 2.8572347 26.55838046 2.74221099 24.1875 2.625 C21.82734638 2.51812512 19.46714309 2.41566503 17.10652161 2.31967163 C15.63704508 2.25889044 14.16782832 2.1913448 12.69902039 2.11611938 C8.82400082 1.94487692 5.87300796 2.22539841 2 3 C1.67 9.6 1.34 16.2 1 23 C0.67 23 0.34 23 0 23 C0 15.41 0 7.82 0 0 Z " fill="#D1BAAA" transform="translate(360,517)"/>
<path d="M0 0 C1.65 0 3.3 0 5 0 C5 7.26 5 14.52 5 22 C-10.84 22 -26.68 22 -43 22 C-43 21.67 -43 21.34 -43 21 C-38.18601219 19.75448301 -33.47653113 19.87310956 -28.54296875 19.90234375 C-27.18852409 19.90446617 -27.18852409 19.90446617 -25.80671692 19.90663147 C-22.93361037 19.91221177 -20.06058284 19.92476066 -17.1875 19.9375 C-15.23502717 19.94251755 -13.28255311 19.94708001 -11.33007812 19.95117188 C-6.55333076 19.96132221 -1.77675344 19.98090147 3 20 C3.33 13.73 3.66 7.46 4 1 C2.68 0.67 1.36 0.34 0 0 Z " fill="#31121B" transform="translate(355,270)"/>
<path d="M0 0 C7.59 0 15.18 0 23 0 C23 14.85 23 29.7 23 45 C15.41 45 7.82 45 0 45 C0 44.67 0 44.34 0 44 C9.9 43.505 9.9 43.505 20 43 C20 41.35 20 39.7 20 38 C20.66 38 21.32 38 22 38 C22 25.79 22 13.58 22 1 C14.74 1 7.48 1 0 1 C0 0.67 0 0.34 0 0 Z " fill="#BC856A" transform="translate(472,607)"/>
<path d="M0 0 C7.26 0 14.52 0 22 0 C22 6.6 22 13.2 22 20 C21.34 20.33 20.68 20.66 20 21 C19.67 15.72 19.34 10.44 19 5 C18.01 4.67 17.02 4.34 16 4 C16 3.67 16 3.34 16 3 C10.39 2.67 4.78 2.34 -1 2 C-0.67 1.34 -0.34 0.68 0 0 Z " fill="#BF8276" transform="translate(608,450)"/>
<path d="M0 0 C6.93 0 13.86 0 21 0 C21.33 22.44 21.66 44.88 22 68 C21.01 68.495 21.01 68.495 20 69 C19.505 35.835 19.505 35.835 19 2 C9.8458125 1.54985381 9.8458125 1.54985381 1 3 C0.34 2.34 -0.32 1.68 -1 1 C-0.67 0.67 -0.34 0.34 0 0 Z " fill="#D1BAAB" transform="translate(541,270)"/>
<path d="M0 0 C1.98 0 3.96 0 6 0 C6 7.59 6 15.18 6 23 C-8.85 23 -23.7 23 -39 23 C-39 21.35 -39 19.7 -39 18 C-38.34 19.32 -37.68 20.64 -37 22 C-24.13 22 -11.26 22 2 22 C2.33 20.68 2.66 19.36 3 18 C3.66 18 4.32 18 5 18 C4.67 12.39 4.34 6.78 4 1 C3.01 1.33 2.02 1.66 1 2 C0.505 1.01 0.505 1.01 0 0 Z " fill="#30151D" transform="translate(399,247)"/>
<path d="M0 0 C28.38 0 56.76 0 86 0 C86 0.66 86 1.32 86 2 C84.35 2 82.7 2 81 2 C80.67 2.66 80.34 3.32 80 4 C79.505 2.515 79.505 2.515 79 1 C52.93 1 26.86 1 0 1 C0 0.67 0 0.34 0 0 Z " fill="#251523" transform="translate(161,90)"/>
<path d="M0 0 C0.33 0 0.66 0 1 0 C1 14.85 1 29.7 1 45 C0.01 45 -0.98 45 -2 45 C-1.88269497 38.75188831 -1.75785931 32.50396027 -1.62768555 26.25610352 C-1.58426577 24.12885993 -1.54259607 22.0015799 -1.50268555 19.87426758 C-1.44515293 16.82361849 -1.38141033 13.77315411 -1.31640625 10.72265625 C-1.29969376 9.76537125 -1.28298126 8.80808624 -1.26576233 7.8217926 C-1.24581711 6.94095505 -1.22587189 6.06011749 -1.20532227 5.15258789 C-1.18977798 4.37315323 -1.1742337 3.59371857 -1.15821838 2.79066467 C-1 1 -1 1 0 0 Z " fill="#2A0000" transform="translate(404,607)"/>
<path d="M0 0 C14.19 0 28.38 0 43 0 C43 0.33 43 0.66 43 1 C41.79351807 1.02505615 40.58703613 1.0501123 39.34399414 1.07592773 C34.88424339 1.16982523 30.42465487 1.27008833 25.96508789 1.37231445 C24.03185815 1.41573041 22.09858841 1.45740042 20.1652832 1.49731445 C17.39261798 1.55485631 14.62015543 1.6185962 11.84765625 1.68359375 C10.97786636 1.70030624 10.10807648 1.71701874 9.21192932 1.73423767 C5.28884034 1.45026213 5.28884034 1.45026213 2 3 C1.84417697 4.34015221 1.74955858 5.68758903 1.68359375 7.03515625 C1.64548584 7.76355713 1.60737793 8.49195801 1.56811523 9.24243164 C1.52501221 10.1730542 1.48190918 11.10367676 1.4375 12.0625 C1.293125 15.011875 1.14875 17.96125 1 21 C11.89 20.505 11.89 20.505 23 20 C23 20.99 23 21.98 23 23 C11.615 22.505 11.615 22.505 0 22 C0 14.74 0 7.48 0 0 Z " fill="#2E141A" transform="translate(607,315)"/>
<path d="M0 0 C0.76166977 0.00222061 1.52333954 0.00444122 2.30809021 0.00672913 C3.16890701 0.00680466 4.02972382 0.00688019 4.91662598 0.00695801 C5.8520372 0.01211929 6.78744843 0.01728058 7.75120544 0.02259827 C8.70422043 0.02401321 9.65723541 0.02542816 10.63912964 0.02688599 C13.69605085 0.032503 16.75289996 0.04505836 19.80979919 0.05775452 C21.87685543 0.06276733 23.94391281 0.06733061 26.01097107 0.07142639 C31.08977507 0.08247795 36.16852489 0.09975397 41.24729919 0.12025452 C38.81293318 2.98029104 38.40494142 3.10516227 34.35838318 3.49256897 C32.73676946 3.50561681 31.11495964 3.50150024 29.49339294 3.48353577 C28.2084066 3.48428352 28.2084066 3.48428352 26.89746094 3.48504639 C25.08769916 3.4827069 23.27793408 3.47298573 21.46824646 3.45643616 C18.69182904 3.43281433 15.91636987 3.43587958 13.13987732 3.44252014 C11.38271011 3.43694438 9.62554696 3.42983513 7.86839294 3.42103577 C6.61837746 3.42240288 6.61837746 3.42240288 5.34310913 3.42379761 C-0.52166734 3.35128798 -0.52166734 3.35128798 -2.75270081 1.12025452 C-1.75270081 0.12025452 -1.75270081 0.12025452 0 0 Z " fill="#210400" transform="translate(543.7527008056641,674.8797454833984)"/>
<path d="M0 0 C7.59 0 15.18 0 23 0 C23 7.59 23 15.18 23 23 C15.74 23 8.48 23 1 23 C1 22.01 1 21.02 1 20 C7.6 20 14.2 20 21 20 C21 16.7 21 13.4 21 10 C21.33 7.03 21.66 4.06 22 1 C14.74 1 7.48 1 0 1 C0 0.67 0 0.34 0 0 Z " fill="#C3B08B" transform="translate(337,292)"/>
<path d="M0 0 C0.33 0 0.66 0 1 0 C1.01981934 1.20124512 1.03963867 2.40249023 1.06005859 3.64013672 C1.1359962 8.08696854 1.22473132 12.53346805 1.31738281 16.97998047 C1.35572168 18.90634614 1.39056582 20.8327846 1.421875 22.75927734 C1.46741945 25.52467918 1.52543037 28.28957769 1.5859375 31.0546875 C1.59748871 31.9193161 1.60903992 32.7839447 1.62094116 33.67477417 C1.52662158 38.31782848 1.52662158 38.31782848 4 42 C6.03060659 42.36894582 6.03060659 42.36894582 8.3515625 42.4140625 C9.11807129 42.44967285 9.88458008 42.4852832 10.67431641 42.52197266 C11.64804199 42.55597168 12.62176758 42.5899707 13.625 42.625 C16.71875 42.74875 19.8125 42.8725 23 43 C23 49.93 23 56.86 23 64 C22.67 64 22.34 64 22 64 C22 57.4 22 50.8 22 44 C14.74 44 7.48 44 0 44 C0 29.48 0 14.96 0 0 Z " fill="#B08B78" transform="translate(585,428)"/>
<path d="M0 0 C0.66 0 1.32 0 2 0 C2.33 6.27 2.66 12.54 3 19 C9.27 19 15.54 19 22 19 C22 12.73 22 6.46 22 0 C22.33 0 22.66 0 23 0 C23 6.93 23 13.86 23 21 C15.41 21 7.82 21 0 21 C0 14.07 0 7.14 0 0 Z " fill="#B6867D" transform="translate(337,496)"/>
<path d="M0 0 C0.99 0.33 1.98 0.66 3 1 C2.67 6.94 2.34 12.88 2 19 C2.99 19 3.98 19 5 19 C5 19.66 5 20.32 5 21 C10.28 21 15.56 21 21 21 C21 21.66 21 22.32 21 23 C14.07 23 7.14 23 0 23 C0 15.41 0 7.82 0 0 Z " fill="#B4857D" transform="translate(315,472)"/>
<path d="M0 0 C13.86 0 27.72 0 42 0 C42 0.99 42 1.98 42 3 C28.47 3 14.94 3 1 3 C0.67 2.01 0.34 1.02 0 0 Z " fill="#250418" transform="translate(562,562)"/>
<path d="M0 0 C0.83265381 0.00523682 1.66530762 0.01047363 2.52319336 0.01586914 C3.33280518 0.0183667 4.14241699 0.02086426 4.9765625 0.0234375 C6.01159912 0.0325415 7.04663574 0.04164551 8.11303711 0.05102539 C11.39241211 0.07165039 14.67178711 0.09227539 18.05053711 0.11352539 C18.38053711 7.70352539 18.71053711 15.29352539 19.05053711 23.11352539 C18.06053711 22.78352539 17.07053711 22.45352539 16.05053711 22.11352539 C16.05053711 15.84352539 16.05053711 9.57352539 16.05053711 3.11352539 C10.44053711 2.78352539 4.83053711 2.45352539 -0.94946289 2.11352539 C-0.76383789 3.37165039 -0.57821289 4.62977539 -0.38696289 5.92602539 C0.24171617 11.4095039 -0.28627843 16.65500718 -0.94946289 22.11352539 C-1.27946289 22.11352539 -1.60946289 22.11352539 -1.94946289 22.11352539 C-2.14536733 18.63477782 -2.32977881 15.15551635 -2.51196289 11.67602539 C-2.56803711 10.68280273 -2.62411133 9.68958008 -2.68188477 8.66625977 C-2.73022461 7.72202148 -2.77856445 6.7777832 -2.82836914 5.80493164 C-2.87550049 4.9303833 -2.92263184 4.05583496 -2.97119141 3.15478516 C-2.94223038 0.43407547 -2.71052713 0.15784535 0 0 Z " fill="#BB8571" transform="translate(318.949462890625,291.886474609375)"/>
<path d="M0 0 C0.66 0 1.32 0 2 0 C2 7.26 2 14.52 2 22 C-5.26 22 -12.52 22 -20 22 C-20 19.69 -20 17.38 -20 15 C-19.731875 15.639375 -19.46375 16.27875 -19.1875 16.9375 C-18.11332248 19.33131686 -18.11332248 19.33131686 -15 20 C-12.66574212 19.6732039 -10.33257494 19.33859959 -8 19 C-5.03 19 -2.06 19 1 19 C0.505 9.595 0.505 9.595 0 0 Z " fill="#6B5E5F" transform="translate(290,293)"/>
<path d="M0 0 C-0.33 0.99 -0.66 1.98 -1 3 C-12.88 3 -24.76 3 -37 3 C-37 2.34 -37 1.68 -37 1 C-32.53429279 0.85657249 -28.06855387 0.71418842 -23.6027832 0.57275391 C-22.08487051 0.52453538 -20.5669667 0.47603614 -19.04907227 0.42724609 C-16.86216495 0.35700128 -14.67522722 0.28777964 -12.48828125 0.21875 C-11.17384033 0.17685547 -9.85939941 0.13496094 -8.50512695 0.09179688 C-5.6673508 0.01747746 -2.8383794 -0.01909759 0 0 Z " fill="#B78673" transform="translate(644,492)"/>
<path d="M0 0 C14.85 0 29.7 0 45 0 C45 6.6 45 13.2 45 20 C44.34 20 43.68 20 43 20 C43.33 13.73 43.66 7.46 44 1 C38.33985159 1.11972411 32.67991906 1.24229627 27.02001953 1.37231445 C25.09362496 1.41569001 23.16719129 1.45736314 21.24072266 1.49731445 C18.47546592 1.55495362 15.7104065 1.61866616 12.9453125 1.68359375 C12.0806839 1.70030624 11.2160553 1.71701874 10.32522583 1.73423767 C6.02604148 1.72159896 6.02604148 1.72159896 2 3 C1.34 2.67 0.68 2.34 0 2 C0 1.34 0 0.68 0 0 Z " fill="#25030D" transform="translate(315,562)"/>
<path d="M0 0 C5.94 0 11.88 0 18 0 C18 1.65 18 3.3 18 5 C12.39 5 6.78 5 1 5 C0.67 3.35 0.34 1.7 0 0 Z " fill="#D6BEA9" transform="translate(567,337)"/>
<path d="M0 0 C0.33 0 0.66 0 1 0 C1 5.61 1 11.22 1 17 C-13.52 17 -28.04 17 -43 17 C-43 16.34 -43 15.68 -43 15 C-22.705 15.495 -22.705 15.495 -2 16 C-2 15.34 -2 14.68 -2 14 C-1.34 14 -0.68 14 0 14 C0 9.38 0 4.76 0 0 Z " fill="#C59C8F" transform="translate(606,545)"/>
<path d="M0 0 C7.26 0 14.52 0 22 0 C22 7.59 22 15.18 22 23 C20.25177734 19.50355468 19.74144074 18.30028401 19.5859375 14.671875 C19.55032715 13.9509668 19.5147168 13.23005859 19.47802734 12.48730469 C19.44402832 11.58399414 19.4100293 10.68068359 19.375 9.75 C19.25125 6.8625 19.1275 3.975 19 1 C12.73 1 6.46 1 0 1 C0 0.67 0 0.34 0 0 Z " fill="#D7D4DA" transform="translate(293,472)"/>
<path d="M0 0 C1.32 0.33 2.64 0.66 4 1 C3.01 1 2.02 1 1 1 C1 7.27 1 13.54 1 20 C4.96 19.505 4.96 19.505 9 19 C10.32 19 11.64 19 13 19 C13.33 19.66 13.66 20.32 14 21 C16.64 21 19.28 21 22 21 C22 21.33 22 21.66 22 22 C14.74 22 7.48 22 0 22 C0 14.74 0 7.48 0 0 Z " fill="#C29B89" transform="translate(292,675)"/>
<path d="M0 0 C6.6 0 13.2 0 20 0 C20 7.59 20 15.18 20 23 C18.68 23 17.36 23 16 23 C16 21.68 16 20.36 16 19 C16.99 19 17.98 19 19 19 C19 14.05 19 9.1 19 4 C18.34 4 17.68 4 17 4 C17 3.34 17 2.68 17 2 C11.39 1.67 5.78 1.34 0 1 C0 0.67 0 0.34 0 0 Z " fill="#B88477" transform="translate(632,472)"/>
<path d="M0 0 C12.87 0 25.74 0 39 0 C39 0.33 39 0.66 39 1 C37.91468994 1.02505615 36.82937988 1.0501123 35.71118164 1.07592773 C31.698684 1.16983755 27.68636618 1.27009767 23.67407227 1.37231445 C21.93485712 1.41572573 20.19559765 1.45739612 18.45629883 1.49731445 C15.96161512 1.55486768 13.4671559 1.6186042 10.97265625 1.68359375 C10.19036148 1.70030624 9.40806671 1.71701874 8.60206604 1.73423767 C5.00128219 1.50648731 5.00128219 1.50648731 2 3 C1.76298761 5.85877909 1.57780818 8.69883297 1.4375 11.5625 C1.39431641 12.36880859 1.35113281 13.17511719 1.30664062 14.00585938 C1.20024738 16.00368805 1.09959112 18.0018207 1 20 C0.67 20 0.34 20 0 20 C0 13.4 0 6.8 0 0 Z " fill="#755861" transform="translate(607,135)"/>
<path d="M0 0 C7.26 0 14.52 0 22 0 C22 5.94 22 11.88 22 18 C21.34 18 20.68 18 20 18 C20 12.72 20 7.44 20 2 C13.4 2 6.8 2 0 2 C0 1.34 0 0.68 0 0 Z " fill="#110C23" transform="translate(270,495)"/>
<path d="M0 0 C14.85 0.33 29.7 0.66 45 1 C45 1.33 45 1.66 45 2 C31.47 2 17.94 2 4 2 C4 2.66 4 3.32 4 4 C2.68 4 1.36 4 0 4 C0 2.68 0 1.36 0 0 Z " fill="#D6C9B7" transform="translate(450,764)"/>
<path d="M0 0 C0.33 0 0.66 0 1 0 C1 6.27 1 12.54 1 19 C-6.59 19 -14.18 19 -22 19 C-22 18.67 -22 18.34 -22 18 C-12.1 17.505 -12.1 17.505 -2 17 C-1.34 11.39 -0.68 5.78 0 0 Z " fill="#C9BFAE" transform="translate(629,341)"/>
<path d="M0 0 C0.33 0 0.66 0 1 0 C1 8.58 1 17.16 1 26 C0.34 25.67 -0.32 25.34 -1 25 C-1.22346404 22.14630381 -1.42913552 19.29311502 -1.625 16.4375 C-1.68945312 15.63763672 -1.75390625 14.83777344 -1.8203125 14.01367188 C-2.15846478 8.83571511 -1.72394315 4.90205207 0 0 Z " fill="#1F0601" transform="translate(291,671)"/>
<path d="M0 0 C3.63 0 7.26 0 11 0 C11 0.33 11 0.66 11 1 C9.88625 1.12375 8.7725 1.2475 7.625 1.375 C3.96896323 1.6465813 3.96896323 1.6465813 2 4 C1.62703444 7.00972657 1.62703444 7.00972657 1.5859375 10.5390625 C1.54726562 11.84101563 1.50859375 13.14296875 1.46875 14.484375 C1.43729237 15.86457862 1.40604509 17.24478704 1.375 18.625 C1.33682066 20.01304541 1.29776895 21.40106711 1.2578125 22.7890625 C1.16327057 26.19257185 1.07772103 29.59607165 1 33 C0.67 33 0.34 33 0 33 C0 22.11 0 11.22 0 0 Z " fill="#76585F" transform="translate(135,270)"/>
<path d="M0 0 C12.87 0 25.74 0 39 0 C39 0.33 39 0.66 39 1 C38.03175293 1.01981934 37.06350586 1.03963867 36.06591797 1.06005859 C32.45384898 1.13646218 28.84216468 1.22512425 25.23046875 1.31738281 C23.67097602 1.35552961 22.1113996 1.39040682 20.55175781 1.421875 C18.30243126 1.46783825 16.05367385 1.52577808 13.8046875 1.5859375 C13.1138205 1.59748871 12.42295349 1.60903992 11.71115112 1.62094116 C7.469017 1.74860831 3.95392404 2.46684578 0 4 C0 2.68 0 1.36 0 0 Z " fill="#75585F" transform="translate(697,247)"/>
<path d="M0 0 C2 2 2 2 2.22705078 3.87939453 C2.21657715 4.62302246 2.20610352 5.36665039 2.1953125 6.1328125 C2.18886719 6.93847656 2.18242187 7.74414062 2.17578125 8.57421875 C2.15902344 9.41597656 2.14226562 10.25773437 2.125 11.125 C2.11597656 11.97449219 2.10695313 12.82398438 2.09765625 13.69921875 C2.07405647 15.79959884 2.03818483 17.89983444 2 20 C2.66 20.33 3.32 20.66 4 21 C2.68 21.33 1.36 21.66 0 22 C0 14.74 0 7.48 0 0 Z " fill="#CCBFB0" transform="translate(405,293)"/>
<path d="M0 0 C0.99 0 1.98 0 3 0 C3 6.93 3 13.86 3 21 C2.34 21 1.68 21 1 21 C0.67 14.07 0.34 7.14 0 0 Z " fill="#BA8574" transform="translate(604,427)"/>
<path d="M0 0 C0.33 0 0.66 0 1 0 C1 6.93 1 13.86 1 21 C-0.32 20.67 -1.64 20.34 -3 20 C-2.67 19.34 -2.34 18.68 -2 18 C-1.79282822 15.32978593 -1.62622225 12.67404165 -1.5 10 C-1.13513514 2.27027027 -1.13513514 2.27027027 0 0 Z " fill="#25060C" transform="translate(314,541)"/>
<path d="M0 0 C0.33 0 0.66 0 1 0 C1 5.94 1 11.88 1 18 C3.64 18 6.28 18 9 18 C8.34 18.99 7.68 19.98 7 21 C4.69 21 2.38 21 0 21 C0 14.07 0 7.14 0 0 Z " fill="#CFD7EC" transform="translate(292,496)"/>
<path d="M0 0 C5.61 0 11.22 0 17 0 C17 0.99 17 1.98 17 3 C13.7 3 10.4 3 7 3 C7 2.34 7 1.68 7 1 C4.69 1.33 2.38 1.66 0 2 C0 1.34 0 0.68 0 0 Z " fill="#D6B585" transform="translate(455,697)"/>
<path d="M0 0 C3.29164829 -0.02895225 6.58326399 -0.0467823 9.875 -0.0625 C10.81214844 -0.07087891 11.74929688 -0.07925781 12.71484375 -0.08789062 C14.05869141 -0.09272461 14.05869141 -0.09272461 15.4296875 -0.09765625 C16.67081299 -0.10551147 16.67081299 -0.10551147 17.93701172 -0.11352539 C20 0 20 0 22 1 C21.34 2.32 20.68 3.64 20 5 C19.67 4.01 19.34 3.02 19 2 C13.72 1.67 8.44 1.34 3 1 C3 1.66 3 2.32 3 3 C2.01 2.67 1.02 2.34 0 2 C0 1.34 0 0.68 0 0 Z " fill="#BA845E" transform="translate(293,450)"/>
<path d="M0 0 C7.59 0 15.18 0 23 0 C22.67 1.32 22.34 2.64 22 4 C21.01 3.34 20.02 2.68 19 2 C16.87662229 1.63566627 16.87662229 1.63566627 14.55078125 1.5859375 C13.70322266 1.54726563 12.85566406 1.50859375 11.98242188 1.46875 C11.10134766 1.4378125 10.22027344 1.406875 9.3125 1.375 C8.41982422 1.33632813 7.52714844 1.29765625 6.60742188 1.2578125 C4.4051538 1.16359782 2.20289278 1.07798412 0 1 C0 0.67 0 0.34 0 0 Z " fill="#BA8568" transform="translate(472,697)"/>
<path d="M0 0 C0.99 0.33 1.98 0.66 3 1 C2.67 1.99 2.34 2.98 2 4 C1.77548542 6.22574335 1.59217122 8.45581519 1.4375 10.6875 C1.35371094 11.86699219 1.26992188 13.04648437 1.18359375 14.26171875 C1.12300781 15.16535156 1.06242187 16.06898438 1 17 C1.66 17.33 2.32 17.66 3 18 C2.01 18 1.02 18 0 18 C0 12.06 0 6.12 0 0 Z " fill="#D5A97B" transform="translate(315,454)"/>
<path d="M0 0 C1.65 0 3.3 0 5 0 C4.51917969 0.53109375 4.03835938 1.0621875 3.54296875 1.609375 C1.61619553 4.59465402 1.5041576 6.72350016 1.3125 10.25 C1.24675781 11.32765625 1.18101562 12.4053125 1.11328125 13.515625 C1.07589844 14.33546875 1.03851562 15.1553125 1 16 C0.67 16 0.34 16 0 16 C0 10.72 0 5.44 0 0 Z " fill="#2F141D" transform="translate(742,247)"/>
<path d="M0 0 C1.98 0 3.96 0 6 0 C6.33 0.66 6.66 1.32 7 2 C6.34 2 5.68 2 5 2 C5 2.66 5 3.32 5 4 C3.35 4.33 1.7 4.66 0 5 C0 3.35 0 1.7 0 0 Z " fill="#FAF6F5" transform="translate(337,697)"/>
<path d="M0 0 C0.99 0.33 1.98 0.66 3 1 C3.33 2.65 3.66 4.3 4 6 C1 5 1 5 -1 4 C-0.67 2.68 -0.34 1.36 0 0 Z " fill="#D9C1A7" transform="translate(563,337)"/>
</svg>
